<svg width="75" height="75" viewBox="0 0 75 75" xmlns="http://www.w3.org/2000/svg" xmlns:xlink="http://www.w3.org/1999/xlink">
    <path id="Path" fill="#000000" stroke="#000000" stroke-width="2" stroke-linecap="round" stroke-linejoin="round" d="M 37.470173 71.59359 C 39.670162 71.59359 41.787258 70.792274 43.821461 69.189651 C 45.855659 67.587029 47.685066 65.281776 49.309689 62.273708 C 50.934303 59.265732 52.22076 55.637177 53.169159 51.387947 C 54.117653 47.138721 54.591805 42.368443 54.591805 37.077206 C 54.591805 31.783901 54.118217 27.012119 53.170948 22.761669 C 52.22377 18.511311 50.937313 14.88163 49.311474 11.87262 C 47.685726 8.863655 45.856319 6.55732 43.823246 4.953568 C 41.790173 3.349747 39.672512 2.547844 37.470173 2.547844 C 35.27037 2.547844 33.153275 3.349747 31.118979 4.953568 C 29.084778 6.55732 27.255274 8.863655 25.630657 11.87262 C 24.006136 14.88163 22.720144 18.511311 21.772591 22.761669 C 20.825228 27.012119 20.351454 31.783901 20.351454 37.077206 C 20.351454 42.368443 20.825228 47.138721 21.772591 51.387947 C 22.720144 55.637177 24.006699 59.265732 25.632444 62.273708 C 27.258282 65.281776 29.08769 67.587029 31.120764 69.189651 C 33.153835 70.792274 35.27037 71.59359 37.470173 71.59359 Z M 37.470173 4.178375 C 39.467907 4.178375 41.367802 5.016495 43.169956 6.692741 C 44.972206 8.368927 46.577087 10.70575 47.9846 13.703251 C 49.392204 16.700703 50.49765 20.187805 51.300934 24.164574 C 52.104317 28.141251 52.505913 32.445457 52.505913 37.077206 C 52.505913 41.476906 52.104317 45.650284 51.300934 49.59745 C 50.49765 53.544518 49.392204 57.044785 47.9846 60.098248 C 46.577087 63.151615 44.972206 65.55912 43.169956 67.320679 C 41.367802 69.08223 39.467907 69.962952 37.470173 69.962952 C 35.474411 69.962952 33.568401 69.08223 31.752153 67.320679 C 29.935902 65.55912 28.33102 63.151615 26.937511 60.098248 C 25.544098 57.044785 24.445795 53.544518 23.642696 49.59745 C 22.839693 45.650284 22.438097 41.476906 22.438097 37.077206 C 22.438097 32.445457 22.839693 28.141251 23.642696 24.164574 C 24.445795 20.187805 25.544098 16.700703 26.937511 13.703251 C 28.33102 10.70575 29.935902 8.368927 31.752153 6.692741 C 33.568401 5.016495 35.474411 4.178375 37.470173 4.178375 Z M 36.472809 3.095673 L 36.472809 70.862198 L 38.467628 70.862198 L 38.467628 3.095673 L 36.472809 3.095673 Z M 37.470173 52.874405 C 33.938988 52.874405 30.604507 53.145271 27.466644 53.687187 C 24.328876 54.229004 21.507462 54.989342 19.002304 55.968102 C 16.49724 56.946854 14.403358 58.075134 12.72066 59.352856 L 14.202044 60.611965 C 16.756731 58.800224 19.993841 57.397224 23.913372 56.402966 C 27.832998 55.408699 32.351959 54.911522 37.470173 54.911522 C 42.590824 54.911522 47.11092 55.408699 51.030262 56.402966 C 54.9496 57.397224 58.186806 58.800224 60.741871 60.611965 L 62.222595 59.352856 C 60.539898 58.075134 58.438404 56.946854 55.917923 55.968102 C 53.397545 54.989342 50.57613 54.229004 47.453583 53.687187 C 44.331135 53.145271 41.003334 52.874405 37.470173 52.874405 Z M 71.279602 35.987923 L 3.660814 35.987923 L 3.660814 37.982746 L 71.279602 37.982746 L 71.279602 35.987923 Z M 37.470173 21.279907 C 41.003334 21.279907 44.331135 21.008953 47.453583 20.467133 C 50.57613 19.925312 53.397545 19.164978 55.917923 18.186218 C 58.438404 17.207466 60.539898 16.079182 62.222595 14.80146 L 60.741871 13.542351 C 58.186806 15.354092 54.9496 16.756996 51.030262 17.75135 C 47.11092 18.745613 42.590824 19.242794 37.470173 19.242794 C 32.351959 19.242794 27.832998 18.745613 23.913372 17.75135 C 19.993841 16.756996 16.756731 15.354092 14.202044 13.542351 L 12.72066 14.80146 C 14.403358 16.079182 16.49724 17.207466 19.002304 18.186218 C 21.507462 19.164978 24.328876 19.925312 27.466644 20.467133 C 30.604507 21.008953 33.938988 21.279907 37.470173 21.279907 Z M 37.470173 71.970757 C 42.292519 71.970757 46.809132 71.063889 51.019829 69.250275 C 55.230618 67.436562 58.949116 64.916084 62.175228 61.688656 C 65.401527 58.461227 67.922005 54.742256 69.736847 50.53175 C 71.551689 46.321335 72.459106 41.805847 72.459106 36.985382 C 72.459106 32.164917 71.551689 27.649429 69.736847 23.438919 C 67.922005 19.228508 65.401062 15.509537 62.17382 12.282112 C 58.946674 9.054672 55.227703 6.534126 51.016914 4.720467 C 46.806221 2.906822 42.289696 2 37.467354 2 C 32.646885 2 28.124256 2.906822 23.899368 4.720467 C 19.674576 6.534126 15.956641 9.054672 12.745378 12.282112 C 9.534265 15.509537 7.021381 19.228508 5.206765 23.438919 C 3.392168 27.649429 2.484863 32.164917 2.484863 36.985382 C 2.484863 41.805847 3.392168 46.321335 5.206765 50.53175 C 7.021381 54.742256 9.534734 58.461227 12.746787 61.688656 C 15.95899 64.916084 19.67749 67.436562 23.902283 69.250275 C 28.127073 71.063889 32.649704 71.970757 37.470173 71.970757 Z M 37.470173 69.962952 C 32.930813 69.962952 28.671904 69.109207 24.693537 67.400276 C 20.715172 65.691269 17.208704 63.319569 14.17413 60.284992 C 11.139576 57.250519 8.76782 53.743385 7.058862 49.763802 C 5.349922 45.784218 4.495452 41.524742 4.495452 36.985382 C 4.495452 32.446022 5.34933 28.186459 7.057076 24.206867 C 8.764841 20.22728 11.136005 16.720249 14.170559 13.685677 C 17.205132 10.651146 20.711695 8.279419 24.690248 6.570465 C 28.668989 4.861511 32.927994 4.007034 37.467354 4.007034 C 42.008682 4.007034 46.268536 4.861511 50.246902 6.570465 C 54.225266 8.279419 57.732391 10.651146 60.768093 13.685677 C 63.803795 16.720249 66.176147 20.22728 67.885071 24.206867 C 69.594086 28.186459 70.448502 32.446022 70.448502 36.985382 C 70.448502 41.524742 69.594086 45.784218 67.885071 49.763802 C 66.176147 53.743385 63.804451 57.250519 60.769878 60.284992 C 57.735306 63.319569 54.228741 65.691269 50.250095 67.400276 C 46.27145 69.109207 42.011505 69.962952 37.470173 69.962952 Z"/>
</svg>
