<svg width="75" height="75" viewBox="0 0 75 75" fill="none" xmlns="http://www.w3.org/2000/svg">
<path d="M37.7094 74.5694C40.0502 74.5694 42.3028 73.7168 44.4672 72.0116C46.6316 70.3064 48.5781 67.8536 50.3067 64.653C52.0353 61.4525 53.4041 57.5917 54.4132 53.0705C55.4224 48.5493 55.9269 43.4737 55.9269 37.8438C55.9269 32.2117 55.423 27.1345 54.4151 22.612C53.4073 18.0896 52.0385 14.2276 50.3086 11.026C48.5788 7.82445 46.6323 5.37049 44.4691 3.66409C42.3059 1.95762 40.0527 1.10439 37.7094 1.10439C35.3688 1.10439 33.1162 1.95762 30.9517 3.66409C28.7873 5.37049 26.8407 7.82445 25.1121 11.026C23.3836 14.2276 22.0153 18.0896 21.0071 22.612C19.9991 27.1345 19.495 32.2117 19.495 37.8438C19.495 43.4737 19.9991 48.5493 21.0071 53.0705C22.0153 57.5917 23.3842 61.4525 25.114 64.653C26.8439 67.8536 28.7904 70.3064 30.9536 72.0116C33.1168 73.7168 35.3688 74.5694 37.7094 74.5694ZM37.7094 2.83929C39.835 2.83929 41.8565 3.73105 43.774 5.51459C45.6916 7.29805 47.3992 9.78445 48.8968 12.9738C50.3945 16.1631 51.5707 19.8734 52.4254 24.1047C53.2802 28.3359 53.7075 32.9156 53.7075 37.8438C53.7075 42.5251 53.2802 46.9656 52.4254 51.1654C51.5707 55.3651 50.3945 59.0894 48.8968 62.3383C47.3992 65.5871 45.6916 68.1487 43.774 70.023C41.8565 71.8973 39.835 72.8344 37.7094 72.8344C35.5859 72.8344 33.5579 71.8973 31.6254 70.023C29.6929 68.1487 27.9853 65.5871 26.5026 62.3383C25.02 59.0894 23.8514 55.3651 22.9969 51.1654C22.1425 46.9656 21.7152 42.5251 21.7152 37.8438C21.7152 32.9156 22.1425 28.3359 22.9969 24.1047C23.8514 19.8734 25.02 16.1631 26.5026 12.9738C27.9853 9.78445 29.6929 7.29805 31.6254 5.51459C33.5579 3.73105 35.5859 2.83929 37.7094 2.83929ZM36.6482 1.68729V73.7912H38.7707V1.68729H36.6482ZM37.7094 54.6521C33.9522 54.6521 30.4043 54.9403 27.0656 55.5169C23.727 56.0934 20.725 56.9024 18.0595 57.9438C15.3941 58.9852 13.1662 60.1857 11.3758 61.5452L12.952 62.8849C15.6702 60.9572 19.1145 59.4644 23.2849 58.4065C27.4554 57.3486 32.2636 56.8196 37.7094 56.8196C43.1578 56.8196 47.9672 57.3486 52.1374 58.4065C56.3076 59.4644 59.752 60.9572 62.4706 62.8849L64.0461 61.5452C62.2557 60.1857 60.0197 58.9852 57.3379 57.9438C54.6562 56.9024 51.6542 56.0934 48.3318 55.5169C45.0095 54.9403 41.4687 54.6521 37.7094 54.6521ZM73.6828 36.6848H1.73608V38.8073H73.6828V36.6848ZM37.7094 21.0354C41.4687 21.0354 45.0095 20.7471 48.3318 20.1706C51.6542 19.5941 54.6562 18.7851 57.3379 17.7437C60.0197 16.7023 62.2557 15.5018 64.0461 14.1423L62.4706 12.8026C59.752 14.7303 56.3076 16.223 52.1374 17.281C47.9672 18.3389 43.1578 18.8679 37.7094 18.8679C32.2636 18.8679 27.4554 18.3389 23.2849 17.281C19.1145 16.223 15.6702 14.7303 12.952 12.8026L11.3758 14.1423C13.1662 15.5018 15.3941 16.7023 18.0595 17.7437C20.725 18.7851 23.727 19.5941 27.0656 20.1706C30.4043 20.7471 33.9522 21.0354 37.7094 21.0354ZM37.7094 74.9707C42.8404 74.9707 47.6461 74.0058 52.1263 72.0761C56.6066 70.1463 60.5631 67.4645 63.9957 64.0305C67.4285 60.5965 70.1103 56.6395 72.0413 52.1595C73.9723 47.6796 74.9378 42.8751 74.9378 37.7461C74.9378 32.6171 73.9723 27.8126 72.0413 23.3326C70.1103 18.8527 67.428 14.8957 63.9942 11.4617C60.5605 8.02769 56.6035 5.34582 52.1232 3.41608C47.643 1.48635 42.8374 0.521484 37.7064 0.521484C32.5774 0.521484 27.7653 1.48635 23.27 3.41608C18.7748 5.34582 14.8189 8.02769 11.4021 11.4617C7.98546 14.8957 5.31174 18.8527 3.38098 23.3326C1.45024 27.8126 0.484863 32.6171 0.484863 37.7461C0.484863 42.8751 1.45024 47.6796 3.38098 52.1595C5.31174 56.6395 7.98596 60.5965 11.4036 64.0305C14.8214 67.4645 18.7779 70.1463 23.2731 72.0761C27.7683 74.0058 32.5804 74.9707 37.7094 74.9707ZM37.7094 72.8344C32.8795 72.8344 28.348 71.926 24.115 70.1077C19.882 68.2893 16.1511 65.7658 12.9223 62.537C9.69352 59.3083 7.16996 55.5767 5.35162 51.3424C3.5333 47.1081 2.62414 42.576 2.62414 37.7461C2.62414 32.9162 3.53267 28.384 5.34972 24.1497C7.16679 19.9154 9.68972 16.1839 12.9185 12.9551C16.1473 9.72635 19.8783 7.20282 24.1115 5.38448C28.3449 3.56615 32.8765 2.65698 37.7064 2.65698C42.5384 2.65698 47.0709 3.56615 51.3039 5.38448C55.5369 7.20282 59.2685 9.72635 62.4985 12.9551C65.7285 16.1839 68.2527 19.9154 70.071 24.1497C71.8894 28.384 72.7985 32.9162 72.7985 37.7461C72.7985 42.576 71.8894 47.1081 70.071 51.3424C68.2527 55.5767 65.7292 59.3083 62.5004 62.537C59.2716 65.7658 55.5406 68.2893 51.3073 70.1077C47.074 71.926 42.5414 72.8344 37.7094 72.8344Z" fill="black"/>
</svg>
