<svg width="20" height="19" viewBox="0 0 20 19" fill="none" xmlns="http://www.w3.org/2000/svg">
<path d="M10 18.7334C14.9658 18.7334 19.0791 14.6289 19.0791 9.6543C19.0791 4.68848 14.9658 0.575195 9.99121 0.575195C5.02539 0.575195 0.920898 4.68848 0.920898 9.6543C0.920898 14.6289 5.03418 18.7334 10 18.7334ZM9.89453 13.9258C8.25098 13.9258 7.13477 13.1787 6.7832 12.3438C6.69531 12.168 6.66016 12.001 6.66016 11.8428C6.66016 11.4033 6.95898 11.1221 7.40723 11.1221C7.75 11.1221 7.96094 11.2715 8.16309 11.5791C8.53223 12.2383 9.12988 12.5635 10 12.5635C10.9053 12.5635 11.5996 12.168 11.5996 11.4561C11.5996 10.8848 11.2568 10.6387 10.1934 10.3662L8.96289 10.041C7.5127 9.68066 6.73926 8.98633 6.73926 7.80859C6.73926 6.30566 8.05762 5.25977 9.99121 5.25977C11.5029 5.25977 12.6191 5.92773 12.9883 6.85938C13.0674 7.03516 13.1025 7.20215 13.1025 7.34277C13.1025 7.79102 12.8037 8.02832 12.3818 8.02832C12.0127 8.02832 11.8105 7.87891 11.6172 7.57129C11.2832 6.89453 10.7646 6.58691 9.93848 6.58691C9.06836 6.58691 8.51465 7.01758 8.51465 7.68555C8.51465 8.19531 8.85742 8.48535 9.73633 8.69629L10.8965 8.99512C12.4961 9.37305 13.3662 10.0762 13.3662 11.3066C13.3662 12.9062 11.9951 13.9258 9.89453 13.9258Z" fill="#1C1C1E"/>
</svg>
