<svg width="572" height="845" viewBox="0 0 572 845" fill="none" xmlns="http://www.w3.org/2000/svg">
<path d="M285.547 0.23814C285.504 0.36801 285.374 0.45459 285.266 0.45459C285.157 0.45459 285.028 0.36801 284.984 0.23814C284.941 0.108271 285.071 4.6052e-05 285.266 4.6052e-05C285.46 4.6052e-05 285.59 0.108271 285.547 0.23814Z" fill="black"/>
<path d="M225.006 224.025C241.565 224.718 255.742 227.272 266.218 231.428C274.248 234.609 281.153 239.891 288.058 248.159C293.599 254.804 296.305 259.198 298.815 265.627C299.227 266.687 299.595 267.531 299.66 267.531C299.725 267.531 300.266 266.536 300.85 265.324C304.292 258.246 307.582 252.467 310.092 249.176C315.049 242.64 324.443 234.891 331.521 231.493C337.452 228.635 347.582 226.103 355.092 225.562C359.963 225.216 363.447 225.648 371.304 227.488C373.274 227.964 376.543 228.679 378.556 229.09C383.707 230.151 385.612 230.735 389.594 232.51C397.278 235.886 400.092 237.899 404.486 243.181C413.923 254.458 419.313 266.752 423.988 287.575C426.737 299.717 427.603 307.185 428.014 321.427C428.512 339.609 428.664 346.362 428.664 348.96V351.709L443.209 351.795C457.04 351.86 457.884 351.903 459.789 352.336C464.703 353.44 468.209 356.406 469.897 360.908C471.348 364.761 471.477 368.115 471.737 407.25C471.845 425.821 471.954 444.674 471.954 449.154V457.314L474.594 459.024C478.296 461.427 479.205 461.925 482.668 463.31C488.274 465.604 489.205 466.21 493.967 470.821C497.473 474.197 504.291 480.128 507.884 482.899C509.14 483.873 510.915 485.258 511.824 485.972C512.754 486.686 514.746 488.548 516.239 490.106L519.01 492.942L521.997 493.548C525.741 494.305 527.127 494.76 529.876 496.124C532.754 497.552 535.352 499.522 538.512 502.704C542.56 506.751 544.616 509.803 545.979 513.721C546.218 514.435 546.953 518.158 547.603 522.011C548.772 528.851 548.837 529.067 549.854 531.232C550.417 532.444 551.521 534.37 552.3 535.496C553.057 536.621 554.421 538.613 555.33 539.933C556.217 541.232 557.321 542.985 557.776 543.829C558.209 544.652 558.988 545.799 559.486 546.34C561.953 549.089 563.858 554.825 564.378 561.015C564.486 562.4 564.616 563.959 564.659 564.5C564.724 565.041 565.308 567.033 565.979 568.916C567.473 573.093 569.161 579.11 569.767 582.357C570.222 584.803 571.088 591.621 571.542 596.643C571.91 600.322 571.888 608.548 571.542 611.686C570.308 622.725 567.906 633.591 565.092 640.69C564.572 642.054 562.43 646.534 560.373 650.647C558.295 654.759 553.62 664.153 549.94 671.534L543.295 684.954L541.65 686.599C540.265 688.006 539.832 688.309 538.62 688.699C535.2 689.824 529.594 690.365 522.949 690.192C518.858 690.106 517.451 689.976 513.252 689.305C505.828 688.114 502.689 687.205 497.603 684.716C494.096 683.028 489.01 679.5 482.408 674.218C480.893 673.006 479.811 672.357 477.971 671.556C472.711 669.262 463.122 664.262 457.451 660.863C451.759 657.465 448.729 654.889 444.378 649.716C443.187 648.331 442.148 647.184 442.084 647.184C441.997 647.184 441.845 647.703 441.781 648.331C441.542 650.106 440.33 654.738 438.079 662.335C434.486 674.543 432.495 679.997 430.698 682.617C429.919 683.72 426.153 687.984 423.707 690.517L421.889 692.4L422.473 694.954C422.776 696.361 423.512 699.153 424.118 701.188C425.547 705.993 425.828 707.66 425.698 711.036C425.59 713.547 425.633 713.872 426.131 715.257C426.434 716.101 426.997 717.703 427.387 718.829C428.772 722.876 428.404 722.292 438.404 736.686C443.577 744.153 449.551 752.941 457.993 765.473C464.205 774.716 467.083 780.192 473.058 794.131C474.356 797.14 475.417 799.694 475.417 799.802C475.417 799.91 475.287 799.997 475.135 799.997C474.984 799.997 473.967 797.833 472.841 795.17C466.629 780.495 463.361 774.391 455.503 762.876C453.642 760.127 450.915 756.101 449.443 753.893C443.815 745.452 430.395 726.123 430.244 726.253C430.2 726.318 429.768 727.833 429.313 729.629C428.274 733.612 427.257 736.339 425.698 739.456C422.863 745.149 411.716 760.257 406.413 765.647C404.681 767.4 401.846 769.716 399.833 771.014C399.378 771.296 399.01 771.599 399.01 771.664C399.01 771.902 402.105 777.183 403.469 779.261C404.226 780.43 405.222 781.794 405.677 782.292C408.014 784.846 408.231 785.993 406.716 787.616C405.568 788.85 401.651 791.317 400.612 791.491C399.594 791.664 398.923 791.253 398.123 789.997C397.495 789.023 395.244 783.915 393.188 778.742C392.668 777.443 392.235 776.404 392.192 776.404C392.17 776.404 390.893 777.183 389.356 778.157C385.85 780.365 383.664 781.404 378.837 783.201C369.919 786.512 363.231 787.941 352.906 788.763C341.478 789.651 322.084 788.287 310.915 785.798C305.85 784.651 292.322 780.495 290.266 779.434C289.79 779.196 289.378 779.023 289.357 779.066C289.335 779.088 289.162 780.322 288.945 781.772C288.751 783.244 288.512 784.694 288.404 784.954C288.058 785.885 287.3 786.188 285.266 786.166C282.863 786.166 281.37 785.56 280.461 784.175C279.854 783.244 279.854 783.244 279.876 779.672C279.898 772.465 282.344 758.374 284.833 751.079L285.785 748.331L283.621 746.123C281.629 744.088 281.088 743.287 281.738 743.287C281.889 743.287 282.3 743.699 282.668 744.175C283.707 745.603 285.893 747.53 287.582 748.504C289.703 749.738 294.551 751.945 296.954 752.768C298.015 753.136 299.725 753.59 300.742 753.763C302.733 754.11 308.989 754.673 313.296 754.889L316.002 755.019L313.945 753.677C309.097 750.495 305.72 747.725 297.603 740.279C292.322 735.43 289.097 732.703 284.075 728.893L280.72 726.361L280.59 731.837C280.396 739.435 279.595 748.071 278.426 754.976C277.084 762.941 274.487 771.859 269.508 785.495C265.634 796.079 264.097 799.997 263.772 799.997C263.383 799.997 263.253 800.365 266.11 792.854C273.967 772.097 276.867 762.227 278.426 750.863C280.266 737.465 280.309 729.889 278.664 706.058C278.296 700.993 277.387 686.036 276.608 672.833C275.829 659.608 274.919 644.283 274.551 638.742C273.296 618.764 273.166 616.21 272.712 598.483C272.106 574.608 271.932 569.803 271.608 564.716C271.196 558.245 271.196 550.582 271.608 545.452C271.803 543.245 272.041 540.128 272.171 538.526C272.3 536.924 272.56 534.392 272.755 532.898C273.231 529.067 273.058 526.188 271.846 519.046C270.547 511.405 270.439 509.284 271.088 504.327C271.608 500.279 271.608 498.526 271.088 490.15C270.742 484.847 271.196 461.643 271.759 455.41C272.517 446.773 274.681 439.63 279.032 431.384C279.075 431.319 278.664 431.102 278.123 430.886C277.235 430.561 276.803 430.561 274.248 430.778C271.543 430.994 269.703 430.886 267.95 430.431C267.582 430.323 267.365 430.604 266.543 432.401C265.201 435.28 262.906 439.306 261.413 441.384C259.4 444.197 255.634 447.704 250.915 451.167L249.487 452.206L249.595 455.28C249.725 459.046 249.162 470.02 248.556 475.106C247.993 480.02 247.777 487.682 248.145 490.951C248.274 492.293 248.729 495.301 249.14 497.617C251.759 512.617 251.889 513.721 251.889 521.968C251.868 525.539 251.759 530.301 251.629 532.574C251.5 534.825 251.24 539.37 251.045 542.639C250.764 547.509 250.72 550.214 250.872 557.574C251.153 571.037 251.002 577.487 250.352 581.816L250.201 582.79L249.119 582.92C248.513 583.006 247.95 582.985 247.842 582.877C247.733 582.79 247.82 581.123 248.036 578.959C248.491 574.716 248.534 567.552 248.166 561.253C247.842 556.102 247.885 551.015 248.253 543.937C248.426 540.669 248.686 533.786 248.816 528.678C249.054 520.258 249.054 518.981 248.707 515.366C248.036 508.115 247.517 505.063 245.872 498.981C244.487 493.786 244.184 486.427 245.071 479.327C246.088 471.037 246.846 458.245 246.478 454.955L246.305 453.332L243.166 454.457C240.569 455.41 238.08 456.102 233.902 457.033C233.642 457.098 233.426 457.055 233.426 456.946C233.426 456.838 233.794 456.687 234.227 456.6C235.352 456.405 241.976 454.284 244.357 453.375C246.608 452.531 246.435 453.05 245.742 448.959C245.482 447.314 245.331 445.453 245.331 443.418C245.331 441.557 245.244 440.258 245.093 440.107C244.768 439.782 246.045 439.306 246.954 439.457C247.365 439.522 248.058 439.825 248.513 440.128C249.184 440.604 249.248 440.691 248.859 440.691C248.404 440.691 248.383 440.734 248.491 443.44C248.599 446.47 248.924 449.998 249.184 450.951L249.335 451.535L251.283 450.085C258.058 444.998 260.785 441.925 264.335 435.388C268.123 428.375 268.967 425.02 268.989 416.99C268.989 411.189 268.339 407.076 266.846 403.332L266.283 401.947L265.287 402.531C258.318 406.514 247.084 414.674 243.145 418.591C241.023 420.713 240.223 421.708 238.123 424.912C235.374 429.111 233.772 430.972 231.846 432.293C230.136 433.462 226.846 434.998 223.188 436.34C221.543 436.946 218.859 438.007 217.257 438.656L214.314 439.868L212.625 438.05C211.716 437.055 207.517 432.92 203.318 428.851C195.417 421.254 191.716 417.379 189.487 414.392C188.794 413.44 187.171 410.799 185.894 408.548C184.638 406.276 183.145 403.808 182.604 403.029C181.197 401.037 177.863 397.661 175.201 395.518C169.573 390.994 164.725 388.397 156.565 385.54L154.703 384.89L155.353 387.293C156.175 390.345 156.283 393.981 155.634 396.427C154.076 402.314 148.123 413.938 144.097 418.916L143.231 419.998L145.201 421.6C154.032 428.83 168.448 439.63 175.742 444.479C178.924 446.6 183.664 449.414 183.794 449.262C183.816 449.241 184.032 447.314 184.27 444.977C184.508 442.661 184.768 440.345 184.855 439.847L185.006 438.959H184.27C183.664 438.938 183.599 438.916 183.902 438.721C184.119 438.613 184.768 438.44 185.331 438.375C186.586 438.245 187.885 438.721 189.119 439.825C189.985 440.583 190.049 440.886 189.27 440.475C189.011 440.345 188.751 440.258 188.708 440.301C188.578 440.453 188.037 445.864 187.863 448.635L187.712 451.037L191.088 452.141C194.032 453.115 200.461 454.868 206.37 456.319C208.123 456.752 209.032 457.141 208.275 457.141C206.911 457.141 194.703 454.046 190.461 452.596C189.054 452.119 187.842 451.73 187.777 451.73C187.604 451.73 187.95 467.336 188.188 470.02C188.924 478.548 189.92 483.05 195.223 501.946C199.53 517.227 200.937 523.223 202.56 532.79C204.66 545.258 205.699 557.422 206.262 575.755C206.327 577.963 206.435 581.145 206.5 582.833L206.63 585.929H205.223H203.794L203.686 584.803C203.621 584.175 203.513 582.379 203.448 580.842C203.383 579.284 203.231 576.859 203.123 575.431C203.015 574.002 202.777 570.258 202.582 567.097C202.041 557.92 201.63 553.569 200.504 545.344C198.707 532.206 197.214 524.565 194.898 516.773C193.989 513.634 188.881 496.881 187.539 492.531C184.811 483.764 183.772 477.682 183.188 466.99C182.928 462.271 182.993 458.397 183.448 453.05C183.621 451.016 183.643 449.89 183.513 449.847C182.733 449.587 178.037 446.816 175.396 445.042C169.552 441.124 156.803 431.643 148.578 425.107C145.547 422.682 142.972 420.713 142.842 420.691C142.734 420.669 141.76 421.557 140.721 422.661C139.097 424.327 138.816 424.717 138.946 425.15C140.439 430.366 142.799 436.297 144.855 439.89C148.253 445.821 148.708 447.206 148.491 450.821C148.361 452.79 148.383 453.115 148.751 453.635C149.487 454.674 150.526 456.903 150.526 457.444C150.526 458.115 149.768 458.721 148.231 459.306C146.002 460.128 145.244 459.847 142.452 457.076C140.829 455.496 139.898 454.262 134.79 447.076C132.69 444.089 130.309 440.778 129.508 439.717C128.037 437.769 124.119 433.202 124.119 433.462C124.119 433.526 124.357 434.392 124.66 435.366C124.941 436.319 125.677 438.873 126.283 441.016C127.409 444.977 128.578 447.79 130.071 450.128C132.279 453.57 132.928 455.929 132.69 459.695C132.539 461.925 132.539 461.925 133.166 462.726C134.119 463.916 135.483 466.232 135.786 467.119C135.959 467.639 135.959 468.072 135.829 468.44C135.353 469.717 132.063 471.86 130.612 471.86C130.201 471.86 129.552 471.687 129.205 471.47C128.123 470.799 124.855 467.379 123.924 465.951C123.448 465.215 122.885 464.414 122.69 464.197C122.474 463.959 121.738 463.137 121.024 462.358C120.331 461.6 119.119 459.998 118.361 458.829C117.539 457.596 116.803 456.708 116.608 456.708C115.612 456.708 109.747 452.747 108.361 451.145C107.799 450.518 106.673 449.479 105.829 448.851C101.024 445.258 95.7856 440.453 92.6038 436.752C90.9588 434.804 88.0584 430.734 86.5865 428.31C86.2618 427.747 86.132 427.704 84.8549 427.704C84.0973 427.704 82.5173 427.596 81.3484 427.466C80.158 427.336 79.0108 427.228 78.751 427.206C78.448 427.185 77.2142 428.159 74.8549 430.388C72.9718 432.141 68.9675 435.561 66.0021 437.942C60.0498 442.726 55.0281 447.531 50.2879 452.985C48.816 454.695 47.5823 456.167 47.539 456.254C47.5173 456.34 48.4914 456.773 49.7035 457.228C54.6169 459.046 57.6255 460.453 62.5389 463.245C70.5043 467.812 73.8809 470.626 78.3614 476.535C82.8203 482.401 85.6991 487.033 88.7294 493.18C91.0887 497.942 92.3441 501.037 94.4653 507.292C99.8982 523.245 102.517 535.301 103.643 549.565C106.154 581.253 105.093 605.431 100.396 624.089C97.9718 633.699 94.7683 642.79 86.3484 663.742C80.7424 677.725 79.1406 681.946 76.8246 688.612C74.8982 694.175 73.2532 698.634 69.79 707.573C68.3398 711.318 66.6515 715.712 66.0671 717.313C64.9199 720.365 62.2576 725.474 60.0498 728.893C59.3355 729.976 58.7511 730.971 58.7511 731.101C58.7511 731.231 59.0974 732.054 59.5087 732.963C59.9199 733.85 60.526 735.473 60.829 736.577C61.3918 738.525 61.4351 739.413 61.0887 742.097C61.0454 742.422 62.4091 743.872 66.2186 747.508C78.4696 759.261 83.8809 764.781 89.4004 771.209C94.9415 777.659 112.755 799.737 112.56 799.932C112.496 799.997 112.322 799.997 112.149 799.932C111.998 799.867 108.599 795.755 104.595 790.755C96.435 780.582 89.8982 772.638 85.9805 768.222C83.0584 764.932 73.9891 755.798 65.9372 748.071L60.6558 743.006L60.1364 743.937C58.6212 746.599 54.5736 750.668 49.5303 754.564C44.8766 758.179 44.0974 758.699 43.9243 758.417C43.7295 758.136 43.513 758.309 47.3875 755.408C55.0065 749.673 59.2056 745.322 60.3528 741.924C61.0671 739.824 60.7208 737.508 59.1407 733.72L58.2749 731.599L56.8463 733.136C54.5952 735.56 48.0152 739.759 41.5433 742.876C37.8204 744.673 33.5563 746.123 27.3226 747.725C22.4741 748.958 21.6516 749.088 21.7815 748.655C21.8248 748.525 23.7079 747.963 25.9806 747.4C33.5563 745.495 37.3009 744.24 41.6948 742.118C46.8031 739.651 53.3831 735.582 55.6558 733.461C58.7078 730.647 63.2749 722.898 65.764 716.318C66.5216 714.305 68.448 709.24 70.0714 705.084C73.0801 697.249 74.5086 693.417 76.2835 688.201C78.145 682.79 80.1147 677.617 85.4177 664.391C92.7986 645.928 95.3527 639.067 97.8419 630.863C103.967 610.755 105.591 588.677 103.448 555.409C102.257 537.054 99.8116 524.825 93.9025 507.574C89.8982 495.842 85.764 487.682 79.3571 478.894C73.9242 471.427 70.9156 468.786 62.106 463.721C55.0498 459.674 47.0628 456.513 40.5909 455.193C34.7252 454.003 28.3615 455.128 17.6906 459.219L15.6992 459.998L12.1711 464.024C7.604 469.219 5.82912 471.362 3.21007 474.89C1.56506 477.076 1.04558 477.639 1.00229 477.293C0.850772 476.383 8.53474 466.903 15.8724 458.873C38.513 434.154 42.4308 430.02 46.197 426.903C48.1883 425.258 51.3052 423.072 53.5563 421.752C54.3355 421.297 57.1493 419.501 59.8333 417.747C62.5173 415.994 65.2446 414.219 65.9372 413.786L67.1493 413.007L67.0411 411.319C66.9329 409.76 66.9762 409.501 67.5389 408.332C68.4697 406.427 72.5822 402.271 75.6774 400.107C79.0757 397.747 83.08 394.522 84.6168 392.942C86.3268 391.167 87.0627 389.89 88.7077 385.908C90.2229 382.206 91.6081 379.371 94.2488 374.587C95.2229 372.812 96.3917 370.605 96.8462 369.717L97.6687 368.051L96.738 367.683C94.5519 366.773 93.4047 365.085 92.9501 362.141C92.6904 360.496 92.8636 358.981 93.4913 357.791C93.6644 357.445 93.8159 356.99 93.8159 356.774C93.8159 356.016 95.9371 352.033 97.2575 350.28C99.0107 347.964 107.019 340.258 112.755 335.41C116.435 332.293 121.608 328.462 127.863 324.263C129.812 322.964 130.179 322.791 130.179 323.181C130.158 323.354 128.448 324.652 126.348 326.081C118.686 331.297 113.383 335.388 109.4 339.176C107.993 340.518 107.907 340.626 108.751 340.085C112.106 337.942 115.98 336.124 118.816 335.367C120.829 334.826 128.123 334.826 132.106 335.345C133.599 335.54 134.833 335.67 134.876 335.648C134.92 335.583 134.314 333.527 132.972 329.111C132.582 327.856 131.5 325.41 130.353 323.159C128.102 318.743 124.335 310.562 123.47 308.202C121.565 303.072 120.201 291.882 120.656 285.259C121.305 275.648 123.361 268.137 127.192 261.514C131.846 253.397 137.582 246.471 143.102 242.25C152.798 234.869 165.093 229.393 177.582 226.861C189.162 224.501 208.621 223.354 225.006 224.025ZM204.963 224.674C181.132 225.648 167.972 228.571 154.184 235.951C143.599 241.644 137.344 247.185 131.132 256.384C126.457 263.332 124.184 268.354 122.734 274.891C120.786 283.852 120.677 291.298 122.409 301.384C123.34 306.882 124.812 310.648 129.985 320.908C132.669 326.211 133.231 327.553 134.184 330.951C134.573 332.315 136.002 336.947 137.322 341.232C139.508 348.224 139.985 349.501 141.911 353.678C146.954 364.457 150.266 372.423 153.318 380.973L154.444 384.111L155.569 384.522C158.924 385.67 163.275 387.423 165.569 388.527C170.439 390.864 176.045 394.998 180.201 399.263C182.539 401.708 183.729 403.397 186.11 407.682C189.855 414.414 191.327 416.211 199.963 424.674C203.318 427.942 207.928 432.509 210.244 434.804C215.049 439.565 214.292 439.262 217.56 437.855C218.664 437.401 220.894 436.514 222.539 435.907C231.543 432.552 233.145 431.34 237.625 424.565C241.045 419.392 243.036 417.336 249.119 412.769C257.127 406.752 262.517 403.202 266.889 401.016C267.95 400.475 270.677 399.306 272.95 398.418C275.201 397.509 279.66 395.648 282.885 394.263C286.088 392.877 290.439 391.059 292.517 390.215C303.794 385.734 305.828 383.743 306.088 376.99L306.196 374.241L305.179 372.986C304.616 372.315 304.054 371.514 303.945 371.211C303.599 370.345 303.902 368.786 304.725 367.185C305.612 365.518 306.023 363.267 306.283 359.003L306.434 356.557L305.72 356.427C304.183 356.103 303.383 356.254 302.582 356.947C301.456 357.942 301.673 357.423 302.971 356.016C303.599 355.323 304.313 354.349 304.573 353.851C304.811 353.332 305.374 352.445 305.807 351.882L306.608 350.843L306.37 349.068C306.24 348.094 305.785 345.929 305.352 344.263L304.573 341.232L302.971 339.544C302.084 338.613 300.937 337.185 300.396 336.341L299.4 334.826L298.448 334.977C297.755 335.085 297.495 335.042 297.495 334.847C297.495 334.631 297.387 334.652 297.106 334.89C296.911 335.085 296.499 335.345 296.218 335.497C295.85 335.691 296.045 335.323 296.976 334.068C298.188 332.401 298.945 331.622 299.292 331.6C299.4 331.6 299.01 332.25 298.448 333.029L297.43 334.479L298.599 334.328C299.248 334.241 300.201 333.981 300.72 333.743C301.932 333.224 305.071 330.042 306.456 327.942C308.556 324.782 308.794 322.964 307.603 319.458C306.348 315.843 304.378 313.397 300.417 310.626C298.209 309.068 296.478 307.618 293.794 305.042L291.932 303.246L290.98 304.046L290.028 304.847L290.893 303.873C291.37 303.354 292.993 301.665 294.486 300.107C298.859 295.605 299.4 294.566 300.915 287.986C302.56 280.908 302.387 278.224 299.876 270.453C297.625 263.549 294.876 258.029 291.326 253.246C285.331 245.194 278.88 239.025 272.56 235.237C259.465 227.423 234.335 223.506 204.963 224.674ZM355.092 226.19C347.82 226.752 337.668 229.263 332.084 231.882C325.763 234.848 316.824 241.947 311.673 248.138C310.071 250.064 307.69 253.679 305.699 257.25C303.491 261.211 300.093 268.159 300.093 268.722C300.093 268.982 300.287 269.761 300.525 270.475C302.279 275.518 302.971 280.064 302.495 283.44C302.062 286.492 300.352 293.202 299.681 294.566C298.794 296.298 296.867 298.657 294.443 300.951L292.409 302.878L294.789 305.129C296.11 306.362 298.101 308.072 299.227 308.917C300.352 309.782 301.651 310.756 302.106 311.081C303.015 311.795 303.339 311.73 303.339 310.865C303.339 310.54 303.577 308.808 303.859 307.033C304.162 305.237 304.551 302.596 304.746 301.168C305.179 297.726 305.785 295.518 306.802 293.484C307.906 291.254 308.815 289.934 312.625 285.107C314.4 282.856 317.235 279.133 318.924 276.817C327.387 265.324 330.071 262.813 335.915 260.973C338.599 260.15 339.724 260.086 344.898 260.605C347.452 260.865 350.092 261.016 350.742 260.973L351.932 260.843L350.98 261.298L350.027 261.731L345.244 261.254C339.746 260.713 338.556 260.757 335.699 261.709C332.062 262.921 329.833 264.458 326.629 267.964C325.828 268.852 322.538 273.073 319.335 277.315L313.534 285.064H315.201C318.404 285.064 329.984 288.614 333.426 290.648C335.006 291.579 335.763 292.683 336.175 294.674C336.543 296.449 336.521 297.336 336.131 297.488C335.958 297.553 334.508 297.033 332.928 296.341C327.344 293.873 320.525 291.644 316.543 290.973C313.772 290.497 311.11 290.778 309.248 291.752C308.209 292.293 307.885 292.596 307.473 293.44C306.608 295.215 305.958 297.358 305.612 299.631C305.439 300.843 305.006 303.743 304.66 306.059C304.292 308.375 303.945 310.735 303.859 311.297C303.729 312.315 303.729 312.336 305.071 313.787C305.958 314.782 306.716 315.908 307.344 317.207C310.006 322.704 309.486 325.648 304.941 330.865L303.621 332.38L304.01 335.085C304.486 338.267 304.725 339.501 305.893 343.938C307.322 349.414 307.495 352.704 306.802 360.605C306.456 364.371 306.196 365.518 305.266 367.553C304.4 369.457 304.227 370.54 304.703 371.362C305.201 372.25 308.729 376.102 311.802 379.111C318.729 385.886 323.101 388.548 329.595 389.977C332.214 390.54 337.625 390.496 341.326 389.869C350.504 388.289 359.292 385.02 366.759 380.41C371.737 377.315 377.3 372.531 379.811 369.154C383.209 364.587 385.807 357.315 390.439 339.263C392.971 329.436 393.231 328.116 393.252 324.999C393.274 321.968 393.123 321.297 391.521 317.639C390.157 314.458 389.4 312.12 389.032 309.869C388.772 308.137 388.75 308.137 387.408 306.86C384.421 304.068 380.439 300.821 379.378 300.302C378.772 299.999 377.062 299.501 375.59 299.198C373.296 298.743 372.56 298.678 370.114 298.765C368.556 298.83 366.023 299.025 364.486 299.22C360.785 299.674 355.071 299.891 352.387 299.674L350.244 299.523L350.374 298.051C350.504 296.471 350.872 295.518 351.651 294.804C353.253 293.311 361.261 292.38 368.382 292.856C377.04 293.419 379.746 294.198 382.43 296.839C383.88 298.267 386.413 301.298 387.43 302.813L388.209 304.003L388.079 303.137C387.668 300.67 386.997 297.748 386.456 296.081C384.768 290.951 379.941 282.488 375.937 277.683C372.603 273.679 369.811 271.709 361.521 267.51C355.612 264.523 354.551 263.873 353.772 262.748C353.274 262.077 353.318 262.099 354.898 263.159C355.785 263.744 358.88 265.453 361.802 266.925C369.573 270.886 371.737 272.293 374.681 275.367C378.014 278.852 381.348 283.808 384.27 289.609C387.214 295.41 387.993 298.116 389.162 306.276C389.833 311.038 390.309 313.051 391.326 315.497C391.737 316.492 392.408 318.116 392.82 319.09C394.638 323.419 394.465 325.951 391.629 337.163C387.495 353.505 384.681 362.25 382.019 366.99C379.984 370.648 374.205 376.362 369.551 379.306C369.032 379.652 368.058 380.605 367.408 381.449C365.655 383.678 362.993 386.427 358.274 390.864C352.127 396.622 345.331 403.981 341.023 409.501C338.75 412.401 337.668 414.349 334.616 421.124C331.499 428.007 330.157 433.57 329.118 443.938C327.993 455.063 327.408 477.487 328.015 485.518C328.274 488.829 329.292 497.314 329.508 497.899C329.616 498.158 329.746 497.834 329.941 496.925C330.417 494.522 332.127 487.682 332.885 485.063C333.707 482.271 335.439 477.834 336.954 474.674C337.798 472.92 338.015 472.184 338.404 469.695C338.859 466.925 339.075 466.189 339.4 466.513C339.486 466.6 339.14 469.111 338.664 472.119C335.699 490.28 334.919 498.18 334.616 512.985L334.508 518.937L336.305 513.743C339.573 504.435 341.348 500.15 343.88 495.561C345.677 492.271 353.469 479.76 356.824 474.76C362.95 465.648 365.201 462.855 369.443 459.327C373.902 455.604 376.391 452.791 383.404 443.526L386.24 439.76L386.088 435.193L385.958 430.626L385.395 430.193C384.594 429.565 383.339 428.159 382.387 426.838C381.607 425.734 381.521 425.669 379.746 425.172C376.391 424.219 375.72 423.57 375.482 421.146C375.33 419.479 375.807 418.267 377.04 417.055C378.426 415.713 379.14 415.475 381.478 415.518C382.646 415.518 383.988 415.691 384.616 415.886C385.201 416.059 385.72 416.167 385.763 416.124C385.828 416.081 385.742 407.488 385.59 397.033C385.265 373.786 385.33 367.336 386.001 364.717C387.3 359.609 390.72 355.302 395.006 353.332C397.625 352.12 397.646 352.12 409.833 351.947C416.088 351.838 422.733 351.752 424.594 351.752L428.014 351.73V348.851C428.036 342.574 427.213 314.458 426.932 310.605C425.633 293.83 420.439 272.618 414.551 259.956C411.434 253.289 405.742 244.999 401.066 240.367C398.144 237.467 395.287 235.692 389.01 232.921C385.504 231.363 383.534 230.778 378.577 229.739C376.543 229.328 373.036 228.571 370.763 228.029C362.43 226.103 359.984 225.822 355.092 226.19ZM310.937 288.289C309.854 289.717 308.967 290.93 308.967 290.995C308.967 291.059 309.292 290.973 309.681 290.8C310.071 290.627 311.24 290.388 312.257 290.259C315.114 289.869 318.123 290.388 323.902 292.25C326.867 293.202 333.144 295.627 334.768 296.449L335.807 296.969V296.449C335.807 295.627 335.352 293.679 335.028 293.029C334.573 292.142 333.729 291.449 332.257 290.735C329.963 289.631 324.789 287.834 320.872 286.774C317.625 285.886 316.781 285.735 314.984 285.735L312.906 285.713L310.937 288.289ZM357.127 293.83C352.885 294.479 351.629 295.107 351.196 296.839C350.763 298.549 350.85 298.873 351.759 299.046C352.971 299.285 361.802 298.96 364.703 298.592C369.205 298.007 372.062 297.943 374.573 298.375C377.603 298.873 379.27 299.414 380.698 300.388C381.997 301.276 385.136 303.895 387.3 305.951L388.664 307.25L388.512 306.276C388.426 305.735 388.274 305.259 388.188 305.194C388.101 305.129 387.625 304.414 387.127 303.592C386.131 301.925 383.772 299.09 381.911 297.25C380.612 295.973 378.815 294.999 376.846 294.479C375.677 294.198 371.088 293.635 368.058 293.419C365.785 293.267 359.292 293.505 357.127 293.83ZM300.893 334.328L300.093 334.761L301.261 336.471C302.43 338.181 304.4 340.28 304.14 339.566C304.075 339.349 303.794 337.769 303.512 336.059L303.036 332.921L302.365 333.419C302.019 333.7 301.348 334.111 300.893 334.328ZM118.167 336.232C114.812 337.228 109.53 340.085 105.331 343.18C103.535 344.501 99.8116 348.094 98.2532 349.999C97.2142 351.276 95.5475 353.873 95.5475 354.219C95.5475 354.306 96.0454 353.83 96.6514 353.159C98.2315 351.427 100.201 349.934 102.171 348.96C104.054 348.007 110.591 345.605 113.621 344.717C118.361 343.354 119.292 343.202 122.712 343.202C125.591 343.18 126.24 343.267 128.34 343.808C131.24 344.544 135.158 346.038 137.236 347.185L138.794 348.029L138.037 345.605C137.625 344.263 136.803 341.665 136.218 339.782L135.158 336.406L134.011 336.254C130.006 335.691 127.517 335.518 124.011 335.583C120.547 335.648 119.898 335.713 118.167 336.232ZM116.976 344.458C114.855 344.999 107.193 347.466 106.651 347.791C106.522 347.877 106.175 348.613 105.872 349.458C105.115 351.557 102.279 358.938 101.175 361.687C99.6168 365.605 97.8852 369.176 94.4004 375.626C92.5389 379.068 90.5259 383.094 89.9198 384.609C88.2748 388.657 87.0411 391.081 85.8289 392.553C84.6385 394.024 80.0714 397.791 75.9588 400.713C74.2922 401.882 72.5389 403.375 71.0671 404.89C66.9762 409.111 66.8247 410.128 69.2272 416.319C71.0454 420.972 71.7381 422.249 73.145 423.57C75.3961 425.713 78.4696 426.773 83.08 426.99C85.7857 427.12 85.8722 427.12 85.7207 426.708C84.3787 423.418 84.422 423.591 84.422 420.778C84.4004 419.284 84.4653 417.747 84.5519 417.358C84.6818 416.773 84.6601 416.665 84.3138 416.665C84.0973 416.665 83.2099 416.514 82.3657 416.319C81.3051 416.081 80.829 415.864 80.829 415.648C80.829 415.41 80.9805 415.366 81.4999 415.475C82.0844 415.604 82.1493 415.583 82.0627 415.237C81.9978 414.998 81.9112 414.436 81.8679 413.959C81.803 413.18 81.8463 413.094 82.3441 413.05C82.6471 413.029 83.5346 412.791 84.3138 412.509L85.7424 412.011L86.5649 409.587C87.2142 407.769 87.474 407.228 87.6688 407.379C87.8852 407.553 87.7121 408.224 86.9761 410.323C85.2445 415.215 84.5302 420.799 85.2662 423.656C85.8722 426.016 88.1882 430.063 91.067 433.873C93.1017 436.514 95.7856 439.414 98.9025 442.271C101.478 444.63 106.154 448.483 106.457 448.483C106.522 448.483 106.586 448.18 106.586 447.834C106.586 446.47 107.885 444.933 109.292 444.674C109.703 444.609 110.05 444.479 110.05 444.414C110.05 444.349 109.617 443.526 109.097 442.552C106.543 437.855 105.028 433.894 103.556 428.072C102.928 425.561 102.344 423.743 102.063 423.353C101.803 423.007 100.677 421.622 99.5519 420.258C98.2532 418.656 97.6038 417.704 97.7553 417.617C97.9068 417.531 98.4047 417.899 98.9458 418.527C99.725 419.414 99.8765 419.501 99.7683 419.046C99.725 418.743 99.5735 418.029 99.4436 417.466C99.2272 416.427 99.3354 415.821 99.6817 416.167C99.7899 416.275 100.071 417.314 100.309 418.505C100.742 420.604 100.894 420.972 101.825 422.076L102.279 422.617L102.171 421.968C101.478 418.094 100.331 410.28 100.331 409.522C100.353 408.05 101.067 411.232 102.063 417.314C103.21 424.327 104.682 430.669 106.024 434.306C107.69 438.808 115.331 453.202 118.989 458.656C120.309 460.648 122.084 462.726 121.846 462.011C121.76 461.773 121.457 460.842 121.154 459.912C120.461 457.877 120.591 456.925 121.608 455.951C122.387 455.215 123.924 454.76 125.569 454.76C127.257 454.76 128.188 455.583 130.591 459.154C131.24 460.128 131.825 460.777 131.954 460.691C132.106 460.583 132.149 459.674 132.084 457.92C131.954 454.76 131.716 454.046 129.444 450.258C127.496 446.99 127.041 445.907 125.85 441.773C123.318 432.899 122.928 431.665 122.56 431.124C120.547 428.202 117.734 419.349 116.543 412.314C116.197 410.215 115.742 408.072 115.569 407.553C115.244 406.622 115.266 406.059 115.634 406.059C115.959 406.059 116.478 408.245 117.193 412.401C117.842 416.275 118.729 419.739 120.093 423.851C121.781 428.916 123.037 431.167 126.002 434.522C128.794 437.661 129.747 438.894 133.708 444.522C135.786 447.466 137.647 450.063 137.799 450.28C138.058 450.626 138.08 450.583 138.015 449.825C137.907 448.765 138.405 447.964 139.465 447.423C140.093 447.098 140.526 447.055 141.76 447.184C142.582 447.271 143.47 447.444 143.708 447.574C144.314 447.877 145.937 449.652 146.824 450.951C147.712 452.249 147.928 452.033 147.928 449.803C147.928 447.055 147.301 445.301 144.747 440.951C141.348 435.172 138.599 427.552 136.803 418.916C135.439 412.293 134.941 406.882 135.374 403.029C135.786 399.219 136.392 397.379 138.513 393.462C140.05 390.648 141.024 388.245 141.889 385.302C142.279 383.938 142.625 382.921 142.669 383.05C142.799 383.418 141.76 387.618 140.786 390.561C140.331 392.011 139.508 394.695 138.946 396.535C138.405 398.375 137.452 400.929 136.846 402.206L135.742 404.522L135.85 406.99L135.959 409.457L137.366 410.843C139.595 413.05 141.218 416.146 141.218 418.202C141.218 419.63 141.002 420.085 139.617 421.578C138.47 422.834 138.166 423.418 138.599 423.678C138.794 423.808 141.521 421.037 143.361 418.83C147.063 414.392 152.387 404.349 154.66 397.466C155.309 395.518 155.374 395.128 155.374 392.531C155.374 389.176 155.071 387.877 152.56 380.734C149.573 372.271 145.677 363.029 140.396 351.903C138.924 348.808 138.491 348.375 135.591 347.033C133.361 345.994 128.708 344.458 126.608 344.068C124.054 343.57 119.876 343.743 116.976 344.458ZM102.582 349.458C99.2272 351.081 95.8506 354.414 94.2055 357.748C93.5995 358.981 93.4913 359.393 93.5129 360.821C93.5129 362.812 94.2055 365.042 95.0713 365.843C95.396 366.146 96.1752 366.665 96.8029 366.968L97.9501 367.553L98.7077 365.864C99.422 364.306 101.219 359.847 104.292 351.947C104.963 350.215 105.504 348.678 105.504 348.527C105.504 348.137 104.963 348.31 102.582 349.458ZM305.396 353.657L305.028 354.393L305.547 354.263C305.807 354.176 306.175 354.111 306.305 354.111C306.499 354.111 306.586 353.743 306.586 353.007V351.882L306.175 352.401C305.958 352.683 305.612 353.245 305.396 353.657ZM409.075 352.596C397.257 352.769 397.581 352.726 394.4 354.371C391.478 355.886 388.772 358.981 387.495 362.271C386.066 365.951 386.131 364.912 386.196 384.955C386.218 394.955 386.326 406.146 386.413 409.847C386.564 416.405 386.564 416.557 386.997 416.449C387.235 416.405 389.032 416.362 391.001 416.362C394.118 416.362 394.854 416.449 396.846 416.925C399.659 417.639 403.923 419.046 412.322 422.076C415.893 423.375 420.525 425.02 422.603 425.756C430.136 428.418 436.045 431.773 445.547 438.743C453.815 444.804 471.066 456.795 471.239 456.622C471.304 456.557 471.261 437.617 471.109 414.566C470.828 366.211 470.785 365.215 469.096 360.778C467.3 356.016 463.425 353.31 457.43 352.618C455.417 352.38 423.252 352.358 409.075 352.596ZM304.963 355.172C304.097 355.561 304.097 355.583 304.66 355.735C305.677 355.994 306.478 355.799 306.543 355.237C306.629 354.631 306.175 354.609 304.963 355.172ZM306.261 380.734C305.417 383.354 304.486 384.696 302.603 386.037C300.742 387.336 297.668 388.83 292.603 390.864C290.201 391.838 285.958 393.613 283.188 394.825C280.396 396.037 276.456 397.682 274.443 398.483C270.699 399.977 267.149 401.47 267.019 401.622C266.976 401.665 267.322 402.834 267.798 404.263C269.075 408.072 269.4 410.172 269.508 415.734C269.638 421.124 269.4 423.83 268.556 427.033C268.274 428.18 268.015 429.262 267.993 429.436C267.906 430.128 270.829 430.453 274.422 430.172L276.088 430.02L274.854 428.938C273.188 427.444 270.569 424.024 270.872 423.721C271.132 423.462 271.023 423.353 272.668 425.561C274.4 427.856 275.807 429.111 277.712 430.02C278.599 430.453 279.357 430.756 279.4 430.713C279.443 430.669 280.287 429.262 281.283 427.596C282.777 425.085 287.603 417.423 287.885 417.12C287.95 417.055 288.08 417.12 288.209 417.249C288.339 417.379 287.993 418.115 287.084 419.501C282.668 426.189 278.448 433.462 276.954 436.946C275.829 439.544 274.292 444.349 273.599 447.423C272.365 453.05 272.084 456.86 271.694 473.483C271.478 483.202 271.5 486.319 271.716 490.258C272.235 499.176 272.235 500.063 271.759 503.894C271.196 508.396 271.196 510.712 271.759 514.695C272.214 517.834 272.603 519.089 272.603 517.401C272.603 515.518 274.357 508.007 277.495 496.427C281.629 481.232 284.313 473.007 287.344 466.405C288.144 464.652 288.707 463.093 288.859 462.184C289.357 459.154 290.634 454.609 293.101 447.076C295.417 439.977 296.564 436.903 298.253 433.332C299.227 431.254 300.504 428.332 301.045 426.838C301.608 425.345 302.798 422.271 303.686 419.977C305.309 415.843 305.331 415.821 306.218 415.41C306.716 415.172 307.538 414.869 308.036 414.717L308.967 414.436V413.224C308.967 412.553 308.815 410.453 308.642 408.548C308.469 406.535 308.318 402.379 308.318 398.592C308.296 395.02 308.209 390.734 308.101 389.068C307.971 387.401 307.82 383.743 307.755 380.951C307.625 376.709 307.56 375.799 307.257 375.453C306.932 375.085 306.911 375.215 306.781 377.315C306.716 378.548 306.478 380.085 306.261 380.734ZM308.534 385.605C308.686 387.618 308.88 393.613 308.989 398.916C309.075 404.219 309.27 409.327 309.378 410.28C309.508 411.232 309.595 412.834 309.616 413.851C309.616 414.869 309.681 416.211 309.746 416.817L309.898 417.964H313.123C320.417 417.964 323.772 417.098 334.075 412.553C338.88 410.431 340.092 409.609 342.235 406.99C345.612 402.856 350.222 397.877 355.049 393.18C362.322 386.081 365.742 382.661 366.326 381.838L366.846 381.102L365.872 381.687C363.924 382.877 358.988 385.258 356.045 386.427C348.534 389.392 341.023 391.016 334.724 390.994C330.85 390.994 329.551 390.778 325.807 389.587C321.305 388.159 316.261 384.566 310.374 378.592L308.426 376.622L308.361 379.263C308.318 380.734 308.404 383.57 308.534 385.605ZM136.695 399.176C136.457 400.042 136.218 401.146 136.154 401.622C136.045 402.444 136.067 402.423 136.673 401.102C137.236 399.912 138.686 395.605 138.967 394.263C139.205 393.137 137.063 397.791 136.695 399.176ZM136.457 413.44C136.868 416.189 137.755 420.799 138.102 421.946C138.21 422.293 138.361 422.206 139.205 421.405C140.483 420.15 140.85 419.414 140.829 418.094C140.786 416.492 139.205 413.397 137.495 411.579C136.781 410.799 136.132 410.193 136.089 410.237C136.045 410.301 136.218 411.73 136.457 413.44ZM332.971 413.721C327.43 416.102 323.859 417.401 321.066 417.985C319.054 418.418 318.166 418.483 312.712 418.483C306.738 418.505 306.608 418.505 305.98 418.029L305.309 417.531L303.989 420.951C303.253 422.812 302.214 425.518 301.673 426.946C301.153 428.375 300.006 431.059 299.118 432.899C297.084 437.206 296.629 438.332 294.4 445.128C291.478 453.959 289.292 461.557 289.573 461.838C289.616 461.881 290.006 461.34 290.461 460.669C292.127 458.137 293.577 456.47 298.902 451.081C301.889 448.05 305.72 444.003 307.387 442.098C310.72 438.31 313.664 435.323 316.002 433.418C317.928 431.838 326.651 425.301 331.131 422.076L334.573 419.609L336.261 416.124C337.17 414.219 338.188 412.25 338.491 411.752L339.053 410.843L338.144 411.362C337.625 411.643 335.309 412.704 332.971 413.721ZM83.4696 413.44C82.6688 413.786 82.5605 413.916 82.5605 414.544C82.5605 415.518 82.7554 415.734 83.816 415.972C84.8333 416.211 84.6818 416.384 85.1579 414.284C85.5259 412.553 85.5476 412.553 83.4696 413.44ZM62.6472 416.665C60.0931 418.332 56.6948 420.496 55.0931 421.492C48.5346 425.518 44.8766 428.505 39.2273 434.436C35.6775 438.18 16.7815 458.743 16.8464 458.808C16.8681 458.829 18.1884 458.375 19.7901 457.769C23.5347 456.384 27.0412 455.345 30.1797 454.717C32.2143 454.306 33.3399 454.219 36.2403 454.241C39.6602 454.241 39.9416 454.284 42.842 455.063C44.5087 455.518 46.0671 455.929 46.3269 455.994C46.6948 456.081 47.3658 455.431 49.7684 452.661C54.5952 447.141 59.6169 442.293 64.5952 438.31C69.4653 434.436 71.4567 432.704 75.1796 429.198C77.2575 427.228 77.6039 426.838 77.2359 426.708C75.764 426.232 73.8376 425.085 72.7554 424.046C71.1969 422.574 70.4177 421.167 68.7943 416.925C68.0801 415.128 67.474 413.635 67.4091 413.635C67.3441 413.635 65.2013 414.998 62.6472 416.665ZM306.781 415.821C305.915 416.211 305.72 416.384 305.764 416.752C305.85 417.358 307.105 417.964 308.253 417.964H309.183V416.535V415.085L308.534 415.237C308.166 415.301 307.387 415.561 306.781 415.821ZM378.361 416.535C377.192 417.228 376.131 418.57 375.937 419.609C375.677 420.951 376.045 422.726 376.694 423.397C377.885 424.587 382.755 425.691 387.646 425.886C390.893 426.016 391.304 425.886 391.975 424.565C392.3 423.916 392.408 423.267 392.408 421.925C392.408 419.782 392.17 419.457 389.833 418.332C384.746 415.864 380.612 415.215 378.361 416.535ZM389.421 417.639C391.499 418.613 392.452 419.349 392.755 420.28C393.101 421.362 392.885 423.57 392.3 424.782C391.564 426.297 390.936 426.492 387.43 426.319C385.872 426.232 384.162 426.081 383.577 425.994C383.014 425.907 382.56 425.864 382.56 425.907C382.56 426.254 384.097 428.094 385.33 429.241C387.473 431.232 390.698 433.05 395.655 435.128C402.387 437.964 414.703 444.284 419.248 447.271C420.547 448.137 423.577 450.388 425.958 452.293C428.339 454.197 431.932 456.99 433.967 458.526C438.685 462.076 439.248 462.682 439.984 464.912C441.023 468.05 440.677 468.808 438.058 469.154C435.568 469.479 432.3 468.808 414.486 464.197C408.62 462.682 406.737 462.379 401.607 462.119C396.846 461.881 396.413 461.816 390.569 460.453C385.265 459.219 383.664 459.132 381.846 460.02C379.984 460.929 379.443 462.271 380.201 464.003C381.153 466.102 380.633 470.106 378.924 473.894C378.253 475.388 378.209 475.323 380.763 476.557C381.867 477.098 383.101 477.444 385.201 477.834C389.768 478.656 390.872 478.959 395.114 480.648C401.521 483.158 402.322 483.375 421.088 487.466C425.547 488.44 432.149 490.215 433.642 490.864C434.854 491.383 435.33 491.903 434.962 492.271C434.573 492.66 425.006 492.531 415.568 491.989C411.283 491.773 405.482 491.47 402.69 491.34C392.625 490.886 390.569 490.539 384.833 488.31C379.854 486.383 378.166 486.21 376.131 487.466C375.049 488.137 375.071 488.461 376.348 489.176C378.685 490.496 379.313 491.643 379.486 494.955C379.616 497.617 379.313 498.851 378.296 499.933C377.625 500.669 377.538 500.691 376.564 500.561L375.525 500.431L376.824 501.73C377.56 502.466 378.685 503.331 379.4 503.678C380.612 504.284 380.828 504.327 383.231 504.327C386.261 504.327 387.993 504.717 395.893 507.271C403.664 509.76 412.69 512.509 415.136 513.137C417.149 513.656 417.798 513.699 424.551 513.851C434.941 514.111 437.019 514.435 441.694 516.621C442.949 517.206 443.815 517.725 443.815 517.92C443.815 518.093 443.685 518.18 443.534 518.115C443.404 518.05 442.3 517.552 441.11 517.011C436.932 515.106 434.4 514.738 424.443 514.5C418.231 514.349 417.062 514.284 415.504 513.873C413.188 513.288 413.209 513.288 413.382 514.067C413.555 515.02 413.123 516.816 412.538 517.487L412.04 518.072L411.218 517.639C409.897 516.968 409.876 516.989 410.915 518.072C413.988 521.275 419.789 524.565 431.694 529.868C439.616 533.375 442.322 534.782 446.954 537.79C453.252 541.859 454.378 542.292 459.356 542.639C463.945 542.942 464.508 543.136 470.98 546.362C473.469 547.617 476.499 549.002 477.668 549.457C480.352 550.452 484.594 551.513 489.378 552.379C494.075 553.223 494.031 553.201 494.031 553.504C494.031 553.851 492.322 553.613 486.715 552.465C480.135 551.145 477.278 550.171 471.109 547.098C466.109 544.608 463.793 543.699 461.694 543.396C460.806 543.266 460.655 543.31 460.828 543.548C462.148 545.236 462.841 545.972 464.876 547.79C466.174 548.937 467.993 550.431 468.923 551.102C470.893 552.53 480.309 557.314 483.858 558.721C488.036 560.388 489.529 560.691 493.274 560.691C497.56 560.712 499.789 560.236 507.56 557.725C510.222 556.859 512.127 556.037 515.785 554.197C524.031 550.041 529.594 547.098 531.153 546.08C536.369 542.66 541.131 536.556 543.793 529.825L544.291 528.613L543.793 526.795C543.209 524.673 541.456 521.145 538.555 516.318C534.399 509.414 532.884 507.574 526.088 501.08C523.772 498.873 520.352 495.409 518.49 493.396C514.183 488.743 512.992 487.639 508.902 484.479C504.529 481.124 497.646 475.236 494.248 471.968C488.815 466.708 488.014 466.145 483.187 464.219C479.594 462.769 478.079 462.011 475.417 460.323C471.304 457.747 455.547 446.752 445.46 439.436C437.733 433.83 431.607 430.042 427.408 428.288C426.131 427.747 423.296 426.665 421.088 425.907C418.88 425.128 414.897 423.7 412.213 422.726C405.72 420.366 399.508 418.267 397.408 417.726C394.941 417.098 393.599 416.946 390.569 416.925L387.863 416.903L389.421 417.639ZM325.309 427.141C315.201 434.609 313.404 436.189 308.036 442.314C306.37 444.219 302.495 448.31 299.443 451.405C292.43 458.505 290.872 460.539 288.296 465.886C285.287 472.098 281.911 482.422 277.712 498.072C273.426 514.067 272.538 519.024 273.166 523.18C273.707 526.751 273.772 529.5 273.383 532.682C273.188 534.284 272.777 538.678 272.452 542.422C271.781 550.582 271.738 557.314 272.235 565.149C272.43 568.071 272.798 578.093 273.036 587.444C273.729 615.041 273.902 619.175 275.201 639.175C275.547 644.586 276.283 656.772 276.824 666.231C277.365 675.69 277.863 683.829 277.928 684.305C278.036 685.149 278.101 685.236 282.409 688.223C294.616 696.772 297.019 698.114 321.694 710.279C340.72 719.629 341.954 720.322 348.815 725.647C350.049 726.599 351.11 727.4 351.175 727.422C351.24 727.465 351.283 724.694 351.305 721.253C351.348 710.43 352.019 707.248 356.456 696.989C358.599 692.054 359.443 689.435 361.564 681.166C364.551 669.543 365.222 667.79 369.335 660.928C371.608 657.184 378.642 643.244 381.045 637.768C382.841 633.677 384.183 629.889 385.049 626.513C386.261 621.794 389.703 603.656 389.703 602.011C389.703 601.535 389.681 601.535 388.772 601.859C386.824 602.552 374.724 606.275 374.421 606.275C374.227 606.275 374.118 606.167 374.162 606.015C374.227 605.864 375.958 605.236 378.036 604.608C388.058 601.535 396.348 598.677 398.491 597.552L399.075 597.249L396.824 595.452C393.014 592.4 388.794 589.781 382.452 586.556C380.958 585.799 379.746 585.041 379.746 584.89C379.746 584.76 379.811 584.63 379.876 584.63C379.962 584.63 381.456 585.366 383.231 586.253L386.434 587.877L386.326 584.998C386.153 580.409 385.828 576.794 385.244 573.396C384.941 571.665 384.53 569.349 384.356 568.288C383.924 565.647 383.729 555.691 384.053 553.136C384.789 547.725 387.646 542.747 393.274 537.098C396.716 533.634 397.343 533.331 401.239 533.115C402.993 533.028 404.4 532.833 404.854 532.639C406.586 531.881 409.183 529.24 412.603 524.717C414.833 521.751 414.768 522.033 413.447 521.08C411.716 519.847 409.854 517.963 409.183 516.816C408.859 516.253 408.101 515.258 407.473 514.608L406.326 513.418H403.361C400.157 513.418 398.447 513.093 395.59 511.968C394.443 511.513 393.815 511.08 392.625 509.868C391.737 508.959 390.893 507.877 390.59 507.206L390.071 506.08L388.317 505.604C387.062 505.258 385.655 505.085 383.426 504.976C379.335 504.803 378.859 504.587 376.001 501.73C374.595 500.323 373.361 499.305 372.408 498.786C368.642 496.73 365.633 494.414 364.898 493.028C364.486 492.249 364.508 490.907 364.963 490.258C365.872 488.916 367.56 487.141 368.209 486.881C369.053 486.513 370.201 486.708 372.733 487.596L374.486 488.223L375.222 487.444C375.763 486.881 376.348 486.557 377.322 486.275C379.27 485.734 380.807 485.994 384.616 487.552C385.569 487.942 386.564 488.331 386.824 488.396L387.322 488.548V483.678C387.322 480.994 387.257 478.786 387.149 478.786C387.062 478.786 386.11 478.635 385.049 478.461C382.235 477.964 380.612 477.379 378.729 476.145C377.798 475.539 376.543 474.868 375.915 474.652C371.824 473.245 369.681 469.262 371.478 466.427C372.17 465.366 373.556 464.046 374.508 463.548C375.352 463.115 377.04 462.747 378.166 462.726C379.01 462.726 379.097 462.682 379.335 461.946C379.746 460.669 380.33 460.02 381.651 459.371C382.733 458.829 383.101 458.764 384.768 458.786L386.672 458.829L386.564 455.864C386.499 454.241 386.391 450.215 386.326 446.925L386.196 440.951L382.841 445.301C376.045 454.132 374.14 456.254 369.659 459.977C366.088 462.942 364.638 464.609 360.439 470.561C357.755 474.349 354.313 479.609 351.889 483.548C350.828 485.28 348.88 488.396 347.603 490.474C343.015 497.812 340.244 504.002 336.391 515.496C335.201 519.024 334.292 521.427 334.118 521.427C333.794 521.427 333.794 520.128 334.075 509.955C334.4 498.418 334.833 493.505 336.564 481.686C337.084 478.137 337.473 475.193 337.452 475.15C337.365 475.063 335.244 480.02 334.508 482.033C333.599 484.587 332.538 488.483 331.066 494.825C330.374 497.79 329.746 500.301 329.66 500.366C329.313 500.734 329.075 499.825 328.556 495.994C327.517 488.223 327.322 485.777 327.214 478.028C326.954 460.972 328.253 440.886 330.179 432.271C330.828 429.306 332.43 424.284 333.296 422.423L334.075 420.734L332.625 421.773C331.802 422.336 328.512 424.76 325.309 427.141ZM386.889 443.873C387.019 450.756 387.17 456.99 387.235 457.726L387.343 459.046L390.633 459.825C395.828 461.059 397.084 461.254 401.586 461.47C406.846 461.751 408.642 462.033 414.919 463.656C431.737 467.985 434.573 468.613 437.062 468.613C438.404 468.613 439.703 468.245 439.854 467.812C440.049 467.293 439.594 465.345 438.945 463.894C438.426 462.747 438.166 462.487 434.768 459.955C432.798 458.461 429.465 455.886 427.365 454.219C419.421 447.855 418.599 447.314 410.157 442.855C403.144 439.133 399.703 437.466 395.655 435.821C392.278 434.436 389.486 433.05 387.863 431.946C387.257 431.557 386.759 431.254 386.716 431.275C386.672 431.319 386.759 436.968 386.889 443.873ZM185.504 439.695C185.158 441.059 183.816 455.799 183.708 459.414C183.513 465.842 184.119 474.262 185.266 480.842C185.959 484.868 186.716 487.769 189.162 495.669C197.43 522.509 198.036 524.868 200.288 539.5C201.759 549.046 202.474 555.452 203.015 563.851C203.188 566.643 203.34 569.154 203.34 569.413C203.34 569.868 203.448 569.911 204.422 569.911H205.504L205.396 568.223C205.331 567.314 205.179 564.5 205.049 562.011C204.378 548.418 202.82 536.167 200.179 523.613C198.946 517.725 198.101 514.457 194.746 502.596C188.21 479.37 187.625 476.059 187.322 460.713C187.149 451.513 187.279 446.449 187.755 442.531C188.08 439.998 188.058 439.955 187.257 439.544C186.24 439.046 185.656 439.089 185.504 439.695ZM245.872 443.375C245.958 445.171 246.261 448.158 246.564 449.998C247.084 453.223 247.106 453.613 246.997 460.496C246.889 467.725 246.629 471.297 245.634 480.085C244.703 488.093 245.071 493.548 246.954 500.647C248.296 505.691 249.227 512.098 249.573 518.613C249.725 521.6 249.422 532.682 248.881 543.504C248.534 550.409 248.534 553.699 248.924 566.383L249.075 570.994H249.833H250.569L250.396 565.95C250.093 558.158 250.201 545.193 250.59 539.175C251.261 529.067 251.478 521.189 251.218 516.621C250.915 511.881 250.547 509.111 249.032 500.647C247.409 491.492 247.387 491.34 247.387 485.388C247.387 481.059 247.517 478.873 247.971 474.457C249.054 464.132 249.292 455.171 248.556 451.189C248.296 449.695 248.08 447.293 247.993 444.76C247.928 442.552 247.798 440.604 247.712 440.475C247.539 440.193 246.197 439.847 245.915 439.998C245.807 440.042 245.785 441.557 245.872 443.375ZM108.535 445.345C107.69 445.778 107.019 446.946 107.019 448.007C107.019 449.479 108.859 451.492 112.344 453.829C114.682 455.388 116.175 456.275 116.5 456.275C116.63 456.275 115.872 454.782 114.833 452.964C113.794 451.167 112.366 448.635 111.673 447.336C110.504 445.236 110.309 445.02 109.768 445.02C109.444 445.02 108.881 445.171 108.535 445.345ZM139.552 447.834C138.231 448.635 138.123 449.739 139.162 452.011C140.526 455.042 144.811 459.306 146.435 459.306C147.214 459.306 149.14 458.591 149.682 458.093C150.223 457.596 150.201 457.119 149.53 455.777C148.924 454.587 146.478 451.016 145.05 449.284C144.054 448.072 143.686 447.855 142.322 447.617C140.721 447.358 140.288 447.379 139.552 447.834ZM123.231 455.518C120.699 456.405 120.569 457.79 122.539 462.487C123.513 464.782 124.573 466.427 126.305 468.288C128.34 470.474 129.638 471.427 130.526 471.427C131.889 471.427 134.747 469.674 135.309 468.505C135.656 467.79 135.634 467.725 134.985 466.405C134.617 465.648 133.816 464.349 133.231 463.526C132.625 462.682 131.283 460.821 130.266 459.371C129.249 457.92 128.037 456.384 127.56 455.951C126.803 455.258 126.586 455.193 125.439 455.193C124.747 455.193 123.751 455.345 123.231 455.518ZM375.85 463.57C374.27 464.003 372.646 465.258 371.716 466.773C371.218 467.574 371.175 469.392 371.629 470.518C372.062 471.535 373.534 473.072 374.659 473.635C375.374 474.003 377.69 474.89 377.949 474.89C378.144 474.89 379.118 472.487 379.638 470.669C380.417 468.007 380.482 465.431 379.811 464.132C379.53 463.635 379.14 463.18 378.945 463.137C378.426 463.007 377.322 463.158 375.85 463.57ZM387.971 483.938V488.873L389.854 489.349C393.036 490.15 396.023 490.431 404.638 490.799C406.369 490.864 411.131 491.124 415.244 491.34C419.356 491.578 425.287 491.816 428.447 491.881C433.62 492.011 434.14 491.989 433.772 491.686C432.776 490.886 426.478 489.241 414.594 486.686C404.789 484.565 400.828 483.548 397.495 482.249C391.975 480.085 390.72 479.63 389.659 479.349C389.032 479.176 388.382 479.024 388.231 479.024C388.036 479.003 387.971 480.128 387.971 483.938ZM368.058 487.487C367.646 487.769 366.802 488.613 366.153 489.37C365.027 490.691 364.984 490.799 365.071 491.773C365.136 492.357 365.395 493.093 365.655 493.483C367.062 495.431 375.114 500.215 377.019 500.215C377.625 500.215 378.317 499.5 378.772 498.44C379.486 496.686 379.053 492.357 377.993 490.886C377.473 490.171 374.356 488.548 372.062 487.812C369.14 486.881 368.988 486.86 368.058 487.487ZM519.984 494.089C520.092 494.305 521.586 495.842 523.295 497.509C525.005 499.176 527.798 501.903 529.508 503.57C531.218 505.236 533.231 507.379 533.966 508.331C537.581 512.963 543.014 522.292 544.161 525.864L544.637 527.379L544.897 526.73C545.049 526.362 545.395 524.998 545.698 523.699C546.434 520.496 546.347 516.795 545.46 514.219C543.902 509.63 541.174 505.821 536.347 501.448C531.629 497.206 527.754 495.301 521.088 493.959C520.547 493.851 520.027 493.764 519.941 493.743C519.854 493.721 519.876 493.894 519.984 494.089ZM391.001 506.621C391.001 506.686 391.348 507.271 391.759 507.899C393.339 510.258 394.984 511.297 398.707 512.228C400.655 512.725 401.153 512.769 406.023 512.747H411.239L405.395 510.929C402.17 509.933 397.755 508.526 395.547 507.812C391.586 506.535 391.001 506.362 391.001 506.621ZM407.235 513.613C407.235 513.894 410.439 516.86 411.153 517.227C411.478 517.379 411.889 517.466 412.062 517.401C412.69 517.163 413.252 515.041 412.993 513.959L412.863 513.418H410.049C408.491 513.418 407.235 513.505 407.235 513.613ZM545.114 528.05C541.737 537.855 536.001 544.608 527.365 548.916C526.109 549.543 522.754 551.297 519.897 552.833C513.88 556.059 510.936 557.357 506.586 558.721C495.871 562.119 491.607 562.271 484.291 559.608C481.348 558.526 471.607 553.613 469.118 551.946C466.542 550.236 462.408 546.578 460.893 544.673C459.832 543.331 459.767 543.288 458.815 543.288H457.841L458.231 543.872C459.075 545.171 465.59 555.842 466.542 557.465C468.772 561.362 469.897 564.349 475.568 581.34L479.205 592.227L481.261 593.201C485.525 595.236 487.971 595.561 499.01 595.561C507.646 595.561 509.529 595.409 513.187 594.478C514.27 594.197 515.915 593.634 516.867 593.223C519.205 592.249 531.932 585.669 534.508 584.11C540.958 580.236 544.291 576.686 549.096 568.613C551.542 564.478 554.919 558.526 555.785 556.816C556.585 555.214 557.603 552.184 558.014 550.214C558.425 548.18 558.209 546.34 557.365 544.457C556.845 543.331 554.118 539.132 552.235 536.556C551.672 535.777 550.741 534.327 550.2 533.31C549.637 532.314 549.248 531.73 549.313 532.011C549.421 532.509 549.897 536.21 550.308 539.738C550.547 541.578 550.59 542.985 550.417 542.833C550.373 542.769 549.984 540.453 549.551 537.66C548.598 531.383 547.083 522.292 546.932 521.86C546.845 521.686 546.607 522.422 546.391 523.505C546.174 524.587 545.59 526.621 545.114 528.05ZM414.162 523.634C411.045 528.115 407.343 532.054 405.395 533.007C404.313 533.548 403.815 533.634 401.304 533.764C397.56 533.959 396.932 534.284 393.707 537.53C389.335 541.924 386.218 546.73 385.114 550.756C384.659 552.379 384.638 552.92 384.638 559.522V566.556L385.417 570.994C386.564 577.422 386.694 578.613 386.867 583.634L386.997 588.18L389.378 589.587C396.391 593.786 400.114 596.924 410.612 607.444C420.417 617.27 423.231 620.474 428.296 627.595C433.945 635.495 442.603 646.751 446.304 650.972C450.871 656.188 454.291 658.634 465.568 664.716C469.789 667.011 475.438 669.824 477.473 670.647C478.534 671.08 478.555 671.123 475.092 668.179C469.032 663.028 464.854 658.742 462.69 655.452C459.876 651.123 458.122 645.387 457.019 636.902C456.088 629.76 456.196 625.301 457.451 619.045C458.144 615.56 458.902 613.201 460.503 609.63L461.564 607.249L460.287 601.838C459.573 598.851 458.815 595.452 458.62 594.262C458.144 591.383 458.144 587.617 458.62 585.279C459.183 582.617 461.001 577.227 462.019 575.236C463.036 573.245 465.482 569.349 467.495 566.491C468.274 565.387 468.923 564.349 468.923 564.175C468.923 563.851 467.733 561.015 466.889 559.349C466.348 558.266 463.988 554.37 459.053 546.405L457.04 543.158L455.612 542.877C453.664 542.487 451.001 541.145 447.019 538.569C441.348 534.89 440.46 534.435 431.045 530.258C425.59 527.834 419.962 525.063 417.192 523.418C416.175 522.834 415.309 522.336 415.222 522.314C415.157 522.292 414.681 522.898 414.162 523.634ZM558.815 548.201C558.815 549.933 558.295 552.292 557.408 554.543C556.65 556.513 555.373 558.937 552.213 564.5C543.49 579.781 541.391 581.686 522.711 591.08C519.616 592.638 516.369 594.154 515.503 594.457C511.283 595.95 506.347 596.426 497.062 596.253C487.581 596.08 485.07 595.69 481.283 593.916C480.287 593.461 479.443 593.093 479.399 593.115C479.378 593.158 479.638 594.348 479.984 595.777C481.045 600.214 481.456 602.227 481.239 602.011C481.131 601.903 480.785 600.755 480.482 599.435C480.157 598.136 479.594 595.993 479.183 594.695C477.148 587.855 469.746 565.691 469.378 565.301C469.075 564.976 464.096 572.465 462.451 575.734C461.607 577.379 459.746 582.92 459.313 585.063C458.317 589.976 458.664 592.768 461.802 605.474C463.231 611.231 463.902 613.418 467.127 622.292C470.741 632.249 472.473 636.556 474.767 641.231C477.538 646.902 480.525 651.123 485.828 656.859C487.062 658.201 488.858 660.127 489.789 661.145C490.915 662.379 491.434 663.071 491.283 663.223C491.153 663.353 489.854 662.119 487.473 659.586C479.681 651.231 476.434 646.686 473.296 639.695C471.369 635.409 471.499 635.625 471.651 637.119C471.889 639.651 472.43 642.552 473.058 644.478C473.642 646.34 476.759 652.876 478.664 656.21C479.399 657.53 479.486 657.79 479.161 657.79C478.512 657.79 473.772 648.547 472.495 644.803C471.694 642.422 470.98 638.223 470.828 634.846C470.806 634.305 470.417 632.898 469.941 631.708C466.737 623.418 462.019 609.76 461.997 608.699C461.975 608.006 461.434 608.98 460.287 611.773C457.711 618.05 456.607 625.582 457.213 632.79C458.144 643.677 460.395 651.448 464.032 656.275C467.56 660.972 475.092 667.811 486.218 676.383C493.209 681.772 496.586 683.829 501.802 685.863C505.114 687.162 507.343 687.703 513.36 688.677C518.317 689.478 518.447 689.478 524.659 689.5C531.131 689.5 533.36 689.326 536.845 688.504C539.226 687.963 540.049 687.508 541.521 685.907C542.689 684.651 543.534 683.028 553.339 663.331C559.14 651.643 564.248 641.188 564.681 640.084C567.148 633.742 569.594 622.876 570.785 612.877C571.304 608.591 571.304 600.041 570.785 595.128C570.135 588.851 569.378 583.158 568.923 581.167C568.036 577.184 565.135 567.574 564.897 567.812C564.832 567.855 564.94 569.608 565.135 571.665C565.936 580.777 565.352 585.496 562.365 594.262C560.265 600.387 557.863 606.102 554.702 612.444C553.707 614.457 552.776 616.21 552.646 616.34C552.538 616.448 552.819 615.777 553.295 614.825C554.767 611.816 558.772 602.27 560.568 597.465C564.681 586.405 565.352 581.578 564.421 570.344C564.161 567.422 563.923 563.851 563.837 562.4C563.555 556.513 561.91 550.604 559.702 547.595C559.291 547.011 558.901 546.535 558.858 546.535C558.837 546.535 558.815 547.292 558.815 548.201ZM396.088 599.197C394.183 599.954 392.127 600.734 391.521 600.95L390.417 601.296L390.157 603.418C389.876 605.625 389.594 607.184 387.776 616.773C385.828 626.946 384.551 631.318 381.564 638.093C379.01 643.915 372.062 657.617 369.659 661.621C365.785 668.071 365.157 669.716 362.214 681.166C360.006 689.759 359.27 692.075 357.192 696.859C352.755 707.032 352.105 709.954 351.911 720.56C351.846 723.958 351.889 726.859 351.976 726.989C352.127 727.205 352.841 727.01 354.854 726.209C359.854 724.261 362.452 722.919 367.95 719.413C370.85 717.595 397.278 700.062 397.581 699.781C397.69 699.673 396.023 699.651 393.902 699.716C390.677 699.824 389.833 699.781 388.794 699.478C386.694 698.872 385.893 697.378 386.088 694.37C386.283 691.231 387.582 689.045 389.984 687.898L391.326 687.249L390.352 687.227C389.811 687.227 386.997 687.443 384.097 687.703C379.724 688.093 378.469 688.136 376.954 687.941C375.937 687.811 375.027 687.746 374.941 687.79C374.313 688.179 367.127 700.582 364.681 705.495C362.56 709.781 361.586 712.616 360.763 716.967C360.374 719.11 360.092 720.127 359.898 720.127C359.53 720.127 359.53 720.214 360.157 716.794C361.391 710.106 363.599 705.257 371.023 692.855C376.997 682.898 381.348 676.794 391.066 664.673C393.988 661.015 398.577 655.214 401.261 651.772C406.954 644.435 408.209 642.898 413.296 637.119C419.248 630.344 420.309 628.915 422.603 624.608C423.577 622.79 423.685 622.444 423.447 622.119C421.434 619.5 413.707 611.253 408.058 605.712C404.746 602.444 399.833 597.855 399.659 597.833C399.594 597.833 397.993 598.461 396.088 599.197ZM423.166 624.825C421.348 628.526 419.335 631.231 413.079 638.309C411.348 640.279 409.226 642.703 408.382 643.721C406.088 646.469 399.443 655.063 399.551 655.149C399.594 655.192 401.304 655.041 403.382 654.781C405.439 654.543 408.642 654.197 410.482 654.002C414.594 653.547 416.239 653.136 419.638 651.708C423.252 650.192 428.858 648.223 429.4 648.309C429.703 648.353 429.27 648.612 428.231 649.002C427.343 649.348 425.049 650.257 423.144 651.015C415.287 654.175 416.304 653.959 403.837 655.387L398.815 655.95L392.517 663.85C386.629 671.21 386.24 671.751 386.716 671.924C387.863 672.335 394.53 672.573 398.252 672.314C408.252 671.621 414.14 670.409 419.789 667.898C421.997 666.902 422.473 666.772 424.053 666.707C426.542 666.578 427.105 666.989 424.681 667.162C422.82 667.292 422.581 667.378 418.707 669.045C414.162 671.036 407.019 672.378 398.144 672.92C395.006 673.114 388.902 672.941 386.543 672.595L385.677 672.465L384.443 674.045L383.209 675.647L383.75 676.036C384.335 676.469 385.157 678.461 385.157 679.5C385.157 680.56 384.746 681.859 384.227 682.443C383.534 683.201 380.417 684.608 378.188 685.149C376.478 685.56 376.196 685.712 375.807 686.318C375.569 686.707 375.417 687.075 375.46 687.14C375.828 687.487 380.33 687.443 384.833 687.01C388.123 686.707 392.841 686.491 398.685 686.361C403.555 686.231 408.296 686.058 409.183 685.928C411.975 685.56 413.945 684.868 417.192 683.179C422.43 680.43 423.209 680.084 424.291 679.954L425.309 679.846L423.967 680.365C423.231 680.647 421.629 681.469 420.395 682.205C417.473 683.937 414.335 685.387 412.387 685.928C409.941 686.578 407.43 686.794 400.742 686.924C394.962 687.032 394.465 687.075 392.733 687.595C390.59 688.223 389.14 688.937 388.469 689.651C388.209 689.911 387.733 690.733 387.387 691.448C386.846 692.595 386.781 692.984 386.781 694.954C386.781 697.378 387.062 698.049 388.317 698.699C389.183 699.132 393.058 699.24 397.019 698.937C401.499 698.59 411.932 697.249 413.317 696.837C417.43 695.603 421.283 692.53 427.365 685.647C429.941 682.725 430.85 681.448 431.759 679.456C434.248 673.98 441.434 649.543 441.434 646.556C441.434 646.34 439.032 643.028 436.11 639.153C433.187 635.301 429.854 630.82 428.707 629.218C425.871 625.214 424.335 623.158 424.14 623.158C424.075 623.158 423.62 623.915 423.166 624.825ZM381.651 677.746C379.833 680.236 376.716 684.911 376.802 685.019C376.867 685.062 377.646 684.889 378.577 684.63C380.525 684.11 383.123 682.941 383.794 682.27C384.313 681.772 384.724 680.56 384.724 679.521C384.724 678.158 383.75 676.188 383.079 676.188C382.928 676.188 382.3 676.902 381.651 677.746ZM278.448 693.417C278.686 697.465 279.075 703.331 279.313 706.491C279.551 709.651 279.898 715.192 280.093 718.829C280.287 722.465 280.461 725.43 280.461 725.452C280.482 725.452 281.673 726.318 283.101 727.378C287.733 730.82 292.971 735.149 296.629 738.525C305.807 747.01 308.686 749.391 313.729 752.725C324.984 760.127 341.023 766.88 350.937 768.374C351.802 768.525 352.56 768.59 352.582 768.569C352.625 768.525 352.517 765.473 352.365 761.794C351.824 749.954 351.608 743.46 351.456 735.82L351.326 728.352L348.274 725.993C341.434 720.733 340.006 719.911 325.634 712.876C297.452 699.088 293.751 697.032 281.478 688.331C279.638 687.032 278.101 685.993 278.058 686.036C278.015 686.058 278.188 689.391 278.448 693.417ZM420.136 693.85C417.928 695.539 414.421 697.313 412.495 697.725C412.105 697.79 408.945 698.223 405.46 698.677L399.118 699.478L395.114 702.205C388.339 706.794 368.317 719.976 365.633 721.599C362.257 723.655 359.097 725.214 355.201 726.729L351.976 728.006L352.105 736.015C352.3 747.725 353.144 768.266 353.426 768.547C353.729 768.85 359.465 768.677 361.889 768.309C367.82 767.378 378.123 764.759 383.317 762.876C390.439 760.279 394.53 758.006 403.664 751.512C405.439 750.235 409.205 747.681 411.997 745.841C421.629 739.456 422.646 738.201 425.807 728.807C427.3 724.305 427.43 723.785 427.43 722.183C427.408 720.841 427.278 720.106 426.824 718.937C424.919 713.98 424.919 713.98 425.049 711.036C425.179 707.681 424.919 706.058 423.469 701.188C422.863 699.153 422.17 696.513 421.889 695.3C421.629 694.067 421.348 693.071 421.283 693.071C421.218 693.071 420.698 693.417 420.136 693.85ZM426.326 729.218C424.638 734.24 424.075 735.56 422.928 737.335C421.131 740.149 418.88 742.054 411.672 746.815C409.053 748.547 404.854 751.404 402.365 753.157C399.854 754.932 396.867 756.967 395.698 757.66C394.53 758.374 393.534 759.023 393.469 759.11C393.361 759.305 398.296 770.582 398.664 770.928C398.707 770.971 399.703 770.343 400.872 769.543C405.027 766.685 409.183 762.097 416.434 752.378C424.335 741.772 426.716 737.27 428.858 728.828L429.768 725.3L428.945 723.98L428.123 722.638L427.971 723.72C427.906 724.305 427.149 726.772 426.326 729.218ZM285.396 751.404C283.101 758.309 280.764 771.426 280.461 779.045C280.309 782.854 280.569 783.872 281.889 784.737C283.426 785.755 287.062 785.906 287.647 784.975C288.253 784.045 289.097 775.885 289.811 764.369C289.984 761.361 290.331 757.14 290.569 754.954C290.785 752.768 290.915 750.95 290.828 750.906C290.742 750.885 289.79 750.387 288.729 749.802C287.647 749.218 286.673 748.72 286.543 748.72C286.391 748.699 285.893 749.911 285.396 751.404ZM291.023 756.599C290.785 759.326 290.461 763.331 290.331 765.473C290.222 767.616 289.963 771.079 289.79 773.157C289.357 778.525 289.335 778.266 290.331 778.763C292.257 779.759 303.924 783.439 309.183 784.737C316.478 786.512 326.326 787.746 338.296 788.33C346.218 788.742 356.629 788.114 363.945 786.794C370.72 785.582 380.417 782.356 385.742 779.543C388.123 778.287 391.867 775.863 391.867 775.56C391.867 775.473 391.196 773.655 390.374 771.512C388.815 767.486 387.322 763.006 387.322 762.443C387.322 762.01 387.257 762.01 385.049 762.876C378.296 765.538 365.352 768.698 358.924 769.261C354.595 769.651 349.963 769.131 344.746 767.66C337.582 765.647 326.976 761.166 319.357 756.945L317.084 755.668L313.945 755.538C308.859 755.322 301.283 754.586 299.248 754.11C298.209 753.872 296.11 753.136 294.573 752.508C293.015 751.88 291.694 751.426 291.629 751.491C291.564 751.556 291.283 753.85 291.023 756.599ZM390.265 760.625C388.317 761.577 387.971 761.815 387.971 762.248C387.971 763.395 390.222 769.629 394.291 779.759C397.971 788.915 399.053 790.906 400.287 790.906C400.915 790.906 404.335 788.915 405.677 787.768C407.581 786.123 407.517 785.343 405.395 782.898C402.495 779.586 398.101 771.707 394.443 763.266C393.577 761.209 392.776 759.521 392.69 759.521C392.625 759.521 391.521 760.019 390.265 760.625Z" fill="black"/>
<path d="M187.798 235.432C187.647 235.497 187.452 235.475 187.387 235.41C187.301 235.345 187.43 235.28 187.669 235.302C187.907 235.302 187.972 235.367 187.798 235.432Z" fill="black"/>
<path d="M186.781 235.648C186.543 235.692 183.946 236.276 181.024 236.926C175.353 238.181 172.149 239.112 168.772 240.475C167.625 240.951 166.651 241.298 166.608 241.276C166.456 241.103 171.759 238.722 173.578 238.138C176.045 237.337 179.703 236.514 183.361 235.93C185.915 235.54 188.037 235.367 186.781 235.648Z" fill="black"/>
<path d="M241.435 238.008C246.153 239.458 248.989 240.887 252.192 243.462C254.703 245.475 255.634 246.493 253.556 244.977C249.292 241.839 246.37 240.302 240.569 238.116C237.755 237.034 238.145 236.99 241.435 238.008Z" fill="black"/>
<path d="M213.751 239.198C221.716 239.761 226.738 241.514 234.465 246.406C238.232 248.787 238.556 249.177 235.093 247.185C229.898 244.177 225.331 242.034 222.106 241.146C219.898 240.519 214.79 239.696 211.457 239.415C207.063 239.047 206.998 239.025 209.292 239.025C210.483 239.025 212.496 239.09 213.751 239.198Z" fill="black"/>
<path d="M270.893 243.029C274.508 245.389 276.153 247.164 278.318 251.038C279.335 252.878 281.694 258.332 281.694 258.809C281.694 258.895 280.807 257.25 279.746 255.129C276.543 248.765 274.638 246.211 271.088 243.549C269.14 242.099 269.01 241.99 269.184 241.99C269.248 241.99 270.028 242.467 270.893 243.029Z" fill="black"/>
<path d="M180.071 252.402C181.262 252.51 183.21 252.748 184.4 252.9L186.565 253.203L183.318 253.073C181.521 252.986 178.015 252.921 175.526 252.943C170.309 252.965 167.604 253.354 160.807 255.064C158.686 255.605 156.911 256.016 156.868 255.973C156.781 255.887 162.885 254.047 165.201 253.462C169.357 252.423 175.612 251.969 180.071 252.402Z" fill="black"/>
<path d="M187.582 253.397C187.452 253.441 187.192 253.441 187.041 253.397C186.911 253.333 187.019 253.289 187.322 253.289C187.625 253.289 187.733 253.333 187.582 253.397Z" fill="black"/>
<path d="M290.785 259.09C290.915 259.328 290.958 259.523 290.915 259.523C290.85 259.523 290.698 259.328 290.569 259.09C290.439 258.852 290.395 258.657 290.439 258.657C290.504 258.657 290.655 258.852 290.785 259.09Z" fill="black"/>
<path d="M291.867 261.038C293.101 263.484 293.967 266.536 294.573 270.54C295.157 274.436 295.352 277.813 295.114 280.215C294.919 282.315 294.291 285.626 294.118 285.453C294.097 285.41 294.205 284.544 294.378 283.549C295.266 278.657 293.859 266.687 291.759 261.514C291.369 260.54 291.088 259.739 291.131 259.739C291.175 259.739 291.499 260.324 291.867 261.038Z" fill="black"/>
<path d="M251.283 264.739C253.188 265.323 256.932 266.384 259.616 267.098C262.3 267.813 264.768 268.484 265.136 268.613C265.699 268.787 265.655 268.808 264.811 268.7C261.218 268.267 254.573 266.535 250.482 264.977C246.175 263.354 246.456 263.267 251.283 264.739Z" fill="black"/>
<path d="M229.638 268.311C234.378 272.272 248.577 278.484 255.396 279.544C256.434 279.718 256.824 279.826 256.348 279.847C254.054 279.912 248.556 278.484 243.924 276.622C237.344 273.982 233.08 271.557 229.53 268.441C228.621 267.64 228.707 267.532 229.638 268.311Z" fill="black"/>
<path d="M281.11 269.415C284.4 273.744 285.482 277.575 285.05 283.224L284.855 285.605L284.682 282.488C284.379 276.644 283.621 274.025 281.089 269.956C280.482 268.982 280.028 268.181 280.071 268.181C280.114 268.181 280.591 268.744 281.11 269.415Z" fill="black"/>
<path d="M188.145 271.752C194.746 273.419 198.469 273.484 209.292 272.164C214.573 271.514 220.071 271.384 222.56 271.839C224.638 272.207 224.443 272.358 222.257 272.055C219.984 271.731 216.586 271.925 209.941 272.705C199.746 273.938 196.153 273.96 191.11 272.835C188.686 272.293 185.223 271.254 185.807 271.254C185.98 271.254 187.041 271.493 188.145 271.752Z" fill="black"/>
<path d="M224.811 272.445C224.66 272.51 224.465 272.488 224.4 272.423C224.314 272.358 224.443 272.293 224.681 272.315C224.92 272.315 224.985 272.38 224.811 272.445Z" fill="black"/>
<path d="M133.361 278.354C133.361 281.622 133.426 282.228 134.162 285.475C134.573 287.445 134.898 289.068 134.855 289.111C134.703 289.263 133.578 285.735 133.188 283.873C132.712 281.622 132.669 278.527 133.08 276.298C133.34 274.804 133.34 274.826 133.361 278.354Z" fill="black"/>
<path d="M189.032 279.523C188.729 279.847 183.361 281.579 181.37 281.99C178.015 282.683 175.742 282.791 172.171 282.358C170.461 282.163 168.989 281.968 168.946 281.904C168.881 281.839 170.569 281.86 172.712 281.947C178.037 282.142 180.201 281.817 188.621 279.523C188.924 279.436 189.097 279.436 189.032 279.523Z" fill="black"/>
<path d="M168.535 281.752C168.405 281.795 168.145 281.795 167.993 281.752C167.864 281.687 167.972 281.644 168.275 281.644C168.578 281.644 168.686 281.687 168.535 281.752Z" fill="black"/>
<path d="M153.34 284.025C153.34 284.09 152.755 285.562 152.019 287.272C148.773 294.912 146.305 298.657 140.569 304.544C138.34 306.839 138.534 306.492 141.348 303.202C145.569 298.267 147.885 294.717 151.262 287.986C152.387 285.713 153.318 283.938 153.34 284.025Z" fill="black"/>
<path d="M268.318 287.726C270.937 289.674 273.383 291.276 276.045 292.748C278.166 293.938 279.898 294.934 279.854 294.977C279.833 294.999 278.599 294.501 277.149 293.852C274.054 292.467 271.781 291.125 269.292 289.241C267.647 287.986 264.14 284.869 264.378 284.869C264.443 284.869 266.218 286.146 268.318 287.726Z" fill="black"/>
<path d="M256.997 291.189C259.876 296.427 262.495 298.873 269.249 302.705C270.677 303.527 272.82 304.653 274.01 305.215C275.201 305.8 276.11 306.254 276.002 306.276C275.634 306.298 271.673 304.609 269.552 303.527C264.66 301.059 260.915 298.137 259.032 295.345C258.145 294.025 256.067 290.064 256.197 289.934C256.24 289.891 256.586 290.453 256.997 291.189Z" fill="black"/>
<path d="M283.296 310.583C283.534 313.311 283.08 314.436 281.5 315.107C280.764 315.41 274.292 315.8 274.552 315.518C274.616 315.453 275.829 315.302 277.236 315.15C282.257 314.696 282.603 314.458 282.777 311.254C282.842 310.085 282.95 309.068 283.015 308.982C283.101 308.917 283.21 309.631 283.296 310.583Z" fill="black"/>
<path d="M274.162 315.735C274.032 315.778 273.772 315.778 273.621 315.735C273.491 315.67 273.599 315.627 273.902 315.627C274.205 315.627 274.314 315.67 274.162 315.735Z" fill="black"/>
<path d="M289.876 326.947C289.898 327.293 290.265 328.57 290.698 329.76C291.997 333.375 292.733 335.561 292.646 335.648C292.56 335.756 290.698 331.709 290.157 330.193C289.811 329.241 289.703 328.527 289.768 327.596C289.811 326.882 289.854 326.579 289.876 326.947Z" fill="black"/>
<path d="M194.357 327.553C197.041 328.007 200.201 330.323 200.786 332.25C201.11 333.354 201.132 337.704 200.829 338.462C200.699 338.787 200.634 338.116 200.634 336.406C200.634 333.354 200.331 332.142 199.205 330.886C197.625 329.068 194.357 327.791 192.236 328.137C190.872 328.354 189.184 328.981 187.885 329.739C186.868 330.345 184.682 332.358 183.881 333.44L183.405 334.09L183.773 333.332C183.967 332.921 184.876 331.839 185.786 330.951C188.491 328.289 191.543 327.077 194.357 327.553Z" fill="black"/>
<path d="M179.746 328.57C179.616 328.808 179.465 329.003 179.4 329.003C179.357 329.003 179.4 328.808 179.53 328.57C179.66 328.332 179.811 328.137 179.876 328.137C179.919 328.137 179.876 328.332 179.746 328.57Z" fill="black"/>
<path d="M178.816 330.367C178.404 331.362 178.339 331.904 178.361 334.956C178.361 337.856 178.448 338.722 178.859 340.259C180.071 344.826 183.426 350.821 187.409 355.561C190.482 359.219 192.344 360.626 197.603 363.202C205.374 367.012 211.889 369.393 214.919 369.522C215.742 369.544 215.764 369.544 215.071 369.631C213.145 369.869 207.127 368.029 200.417 365.15C195.634 363.094 193.794 362.12 191.478 360.41C187.82 357.683 183.491 352.12 180.72 346.557C178.686 342.488 177.928 339.436 177.906 335.388C177.906 333.072 177.993 332.293 178.404 331.016C178.664 330.15 178.967 329.414 179.075 329.349C179.184 329.263 179.054 329.739 178.816 330.367Z" fill="black"/>
<path d="M210.374 349.241C211.954 349.999 212.798 350.821 213.534 352.228C214.032 353.181 213.924 353.787 213.253 353.981C212.993 354.046 211.5 353.852 209.941 353.548C206.348 352.834 202.127 352.878 200.006 353.657C197.668 354.501 196.586 354.176 195.417 352.358C194.703 351.211 194.768 351.038 195.526 352.077C196.933 354.003 197.3 354.09 200.158 353.137C202.257 352.445 202.668 352.38 204.898 352.38C206.608 352.38 208.166 352.553 210.049 352.921C213.231 353.548 213.296 353.57 213.296 353.137C213.296 351.99 211.694 350.172 209.876 349.263C209.27 348.938 208.751 348.635 208.751 348.592C208.751 348.44 208.664 348.419 210.374 349.241Z" fill="black"/>
<path d="M194.443 349.718C194.465 349.847 194.53 350.15 194.595 350.367C194.703 350.735 194.703 350.735 194.465 350.367C194.335 350.15 194.27 349.869 194.335 349.718C194.4 349.523 194.443 349.523 194.443 349.718Z" fill="black"/>
<path d="M303.404 368.181C303.296 369.068 303.231 370.518 303.231 371.384V372.964L302.841 372.055C302.387 370.951 302.517 369.068 303.166 367.531L303.556 366.557L303.404 368.181Z" fill="black"/>
<path d="M222.365 384.761C223.469 386.6 225.309 388.354 227.084 389.263C229.487 390.453 233.621 391.535 240.136 392.639C241.391 392.856 242.062 393.051 241.651 393.051C240.223 393.094 235.266 392.401 232.993 391.882C226.694 390.367 224.66 389.09 222.344 385.215C221.868 384.414 221.5 383.7 221.565 383.657C221.608 383.613 221.976 384.111 222.365 384.761Z" fill="black"/>
<path d="M243.21 393.224C243.08 393.267 242.82 393.267 242.668 393.224C242.539 393.159 242.647 393.115 242.95 393.115C243.253 393.115 243.361 393.159 243.21 393.224Z" fill="black"/>
<path d="M368.491 234.458C365.785 235.627 364.638 236.341 363.101 237.791C361.434 239.35 358.599 243.094 356.997 245.843C355.85 247.791 355.936 247.358 357.149 244.956C358.469 242.358 359.984 240.129 361.694 238.311C363.404 236.493 364.638 235.692 366.954 234.848C368.685 234.22 369.573 233.982 368.491 234.458Z" fill="black"/>
<path d="M346.737 236.904C343.685 237.965 340.85 239.393 338.079 241.233C335.915 242.661 329.486 247.683 326.175 250.519C323.837 252.51 325.46 250.865 328.794 247.856C335.785 241.536 340.092 238.722 345.33 237.055C348.296 236.125 349.291 236.016 346.737 236.904Z" fill="black"/>
<path d="M393.015 250.021C397.971 254.696 402.041 260.389 405.785 267.878C407.17 270.627 409.292 275.735 409.118 275.886C409.075 275.93 408.599 274.912 408.036 273.635C407.473 272.358 406.067 269.566 404.898 267.423C400.46 259.285 397.235 254.739 392.538 249.934C391.391 248.787 390.525 247.835 390.59 247.835C390.655 247.835 391.738 248.809 393.015 250.021Z" fill="black"/>
<path d="M336.239 251.558C333.534 252.943 328.88 255.757 327.257 256.991C323.296 260.021 321.153 262.272 318.685 265.995C317.863 267.229 317.192 268.181 317.192 268.094C317.192 267.77 320.33 262.77 321.326 261.536C323.967 258.203 330.2 253.852 335.958 251.32C339.032 249.978 339.14 250.064 336.239 251.558Z" fill="black"/>
<path d="M364.162 257.077C364.162 257.51 366.348 260.627 367.647 262.077C368.383 262.878 370.85 265.41 373.101 267.683C375.374 269.977 377.149 271.861 377.062 271.861C376.413 271.861 368.577 264.22 366.694 261.752C365.525 260.237 363.837 257.185 364.032 256.991C364.097 256.904 364.162 256.947 364.162 257.077Z" fill="black"/>
<path d="M310.46 265.389C310.482 265.454 310.244 266.19 309.962 267.034C309.421 268.592 308.577 272.467 307.019 280.302C306.218 284.328 304.27 292.402 304.227 291.882C304.205 291.601 305.201 286.384 306.802 278.289C307.582 274.415 308.447 270.8 308.967 269.198C309.789 266.709 310.417 265.107 310.46 265.389Z" fill="black"/>
<path d="M387.884 271.038C395.222 282.423 398.382 289.393 400.958 299.826C402.257 305.085 404.551 317.921 404.356 318.808C404.313 319.003 404.205 318.657 404.118 318.072C403.707 315.367 401.304 303.83 400.417 300.237C397.841 289.847 394.594 282.575 387.105 270.324C384.941 266.795 385.114 267.099 385.222 267.099C385.287 267.099 386.478 268.873 387.884 271.038Z" fill="black"/>
<path d="M409.486 276.514C409.681 277.077 409.637 277.207 409.378 276.774C409.248 276.557 409.183 276.319 409.248 276.276C409.291 276.211 409.399 276.319 409.486 276.514Z" fill="black"/>
<path d="M407.408 299.717C408.75 303.852 409.118 305.583 410.265 312.445C410.85 315.886 411.867 321.687 412.538 325.302C413.209 328.916 413.707 331.903 413.685 331.947C413.555 332.055 410.958 320.28 410.482 317.531C410.244 316.168 409.703 312.899 409.291 310.28C408.447 305.064 407.949 302.769 406.975 299.371C406.629 298.137 406.391 297.098 406.434 297.055C406.478 297.012 406.91 298.202 407.408 299.717Z" fill="black"/>
<path d="M319.789 300.02C321.673 300.497 323.296 301.254 324.227 302.077C324.789 302.575 324.811 302.596 324.313 302.315C322.582 301.298 317.712 300.042 315.266 299.977C314.357 299.956 314.335 299.934 314.919 299.782C316.088 299.479 318.144 299.588 319.789 300.02Z" fill="black"/>
<path d="M308.75 303.917C309.53 304.263 311.218 304.891 312.538 305.324C314.876 306.081 314.941 306.103 316.651 305.865C320.266 305.367 323.209 305.713 325.763 306.904C327.387 307.661 330.179 309.436 330.179 309.696C330.179 309.804 329.335 310.15 328.274 310.475C322.733 312.163 318.188 312.726 315.763 312.012C312.711 311.124 308.534 309.111 308.534 308.527C308.534 308.397 308.924 308.116 309.421 307.899L310.287 307.488L308.447 305.648C305.915 303.116 306.002 302.683 308.75 303.917ZM320.417 306.731C320.092 307.337 320.136 309.155 320.504 310.389C320.742 311.189 320.872 311.384 321.369 311.427C322.062 311.514 322.062 311.557 321.521 310.497C321.153 309.782 321.11 309.393 321.218 308.332C321.305 307.618 321.456 306.86 321.564 306.644C321.716 306.341 321.651 306.276 321.218 306.276C320.872 306.276 320.569 306.449 320.417 306.731ZM316.218 306.579C312.56 307.228 309.616 308.159 309.616 308.657C309.616 308.938 312.3 310.194 314.703 311.038C316.196 311.579 317.04 311.752 318.318 311.774C319.227 311.774 320.027 311.752 320.092 311.687C320.157 311.622 320.049 311.081 319.876 310.497C319.659 309.782 319.573 308.895 319.638 307.834L319.724 306.276H318.837C318.339 306.276 317.17 306.406 316.218 306.579ZM322.517 307.466C322.235 307.748 322.235 307.899 322.452 308.224C322.733 308.722 323.253 308.787 323.642 308.397C323.988 308.051 323.967 307.899 323.556 307.488C323.144 307.055 322.928 307.055 322.517 307.466ZM326.564 309.198C326.564 310.28 326.586 310.345 326.954 310.15C327.452 309.891 327.473 309.241 327.019 308.549C326.824 308.246 326.651 308.008 326.608 308.008C326.586 308.008 326.564 308.549 326.564 309.198Z" fill="black"/>
<path d="M367.192 308.852C367.841 308.982 367.733 309.025 366.326 309.176C364.486 309.371 361.11 310.021 360.201 310.367C359.118 310.778 359.248 310.605 360.504 309.956C362.452 308.96 365.244 308.484 367.192 308.852Z" fill="black"/>
<path d="M361.673 313.332C362.019 313.375 363.512 313.57 364.963 313.743C366.413 313.938 368.491 314.306 369.616 314.609C372.04 315.259 372.69 315.302 379.789 315.497C384.335 315.605 385.374 315.691 385.374 315.93C385.374 316.146 385.071 316.233 384.335 316.233C382.69 316.233 376.499 317.445 376.499 317.769C376.499 317.856 376.997 318.289 377.603 318.722C379.118 319.804 378.859 320.042 375.785 320.215C374.465 320.302 372.17 320.562 370.698 320.8C365.439 321.622 363.686 321.319 359.854 318.96C357.798 317.661 353.512 313.83 353.815 313.527C353.989 313.332 360.655 313.181 361.673 313.332ZM355.071 314.025C355.071 314.393 357.798 316.817 359.465 317.943C361.088 319.025 363.729 320.41 363.88 320.259C363.924 320.215 363.75 319.544 363.491 318.743C363.058 317.423 363.036 317.228 363.318 315.973C363.491 315.215 363.621 314.501 363.621 314.393C363.621 314.263 363.079 314.111 362.43 314.046C360.525 313.852 355.071 313.83 355.071 314.025ZM364.14 315.085C363.707 316.362 363.794 318.137 364.357 319.414C364.941 320.735 365.374 320.886 367.841 320.562C368.729 320.453 369.638 320.345 369.854 320.345C370.634 320.345 371.434 317.553 370.893 316.687C370.763 316.471 370.655 316.644 370.569 317.25C370.179 319.479 368.274 320.626 366.175 319.912C365.482 319.652 364.746 318.549 364.486 317.38C364.378 316.795 364.573 315.605 364.963 314.588C365.028 314.414 364.941 314.285 364.746 314.285C364.551 314.285 364.292 314.631 364.14 315.085ZM366.11 315.886C365.698 316.384 365.937 317.207 366.499 317.272C367.452 317.423 367.95 316.579 367.279 315.93C366.867 315.497 366.456 315.497 366.11 315.886ZM371.391 316.146C371.716 316.99 371.737 318.137 371.456 319.046L371.153 320.042L372.69 319.869C373.534 319.782 374.984 319.652 375.915 319.566L377.625 319.436L376.131 318.44C374.616 317.401 371.781 315.821 371.434 315.8C371.348 315.8 371.326 315.951 371.391 316.146Z" fill="black"/>
<path d="M404.594 319.804C404.594 320.15 404.551 320.28 404.486 320.064C404.443 319.869 404.443 319.566 404.486 319.414C404.551 319.285 404.594 319.436 404.594 319.804Z" fill="black"/>
<path d="M404.811 321.319C404.811 321.665 404.768 321.795 404.703 321.579C404.66 321.384 404.66 321.081 404.703 320.93C404.768 320.8 404.811 320.951 404.811 321.319Z" fill="black"/>
<path d="M405.049 322.856C405.049 323.094 404.984 323.159 404.919 322.986C404.854 322.835 404.876 322.64 404.941 322.575C405.006 322.488 405.071 322.618 405.049 322.856Z" fill="black"/>
<path d="M327.711 324.458C327.149 325.475 325.872 327.943 324.854 329.977C323.014 333.614 322.993 333.678 323.079 335.064C323.123 336.081 323.296 336.687 323.642 337.228L324.162 337.986L323.491 337.228C323.101 336.817 322.711 336.081 322.582 335.627C322.084 333.808 322.733 332.207 326.391 326.168C328.534 322.596 329.205 321.752 327.711 324.458Z" fill="black"/>
<path d="M346.369 331.427C346.737 332.185 347.365 333.332 347.711 333.982C348.534 335.518 348.967 338.008 348.599 339.328C348.469 339.826 348.101 340.54 347.798 340.908C347.192 341.601 345.395 342.769 345.2 342.575C345.135 342.51 345.352 342.315 345.698 342.142C347.084 341.406 348.144 339.696 348.144 338.224C348.144 336.839 347.668 335.194 346.586 332.834C345.417 330.28 345.244 329.263 346.369 331.427Z" fill="black"/>
<path d="M413.923 332.596C413.923 332.834 413.859 332.899 413.794 332.726C413.729 332.575 413.75 332.38 413.815 332.315C413.88 332.228 413.945 332.358 413.923 332.596Z" fill="black"/>
<path d="M329.292 336.795C330.482 337.748 330.85 338.462 329.681 337.596C328.967 337.055 327.711 336.362 327.452 336.362C327.387 336.362 327.365 336.709 327.408 337.12C327.517 338.051 327.3 338.094 326.932 337.228C326.283 335.691 327.582 335.453 329.292 336.795Z" fill="black"/>
<path d="M341.478 337.877C342.906 338.657 343.621 340.063 342.841 340.691C342.452 341.016 341.954 340.843 341.11 340.15L340.461 339.587L341.153 339.934C341.543 340.107 341.997 340.258 342.192 340.258C343.123 340.258 341.867 338.483 340.461 337.856C339.746 337.509 339.681 337.444 340.136 337.466C340.439 337.466 341.023 337.661 341.478 337.877Z" fill="black"/>
<path d="M330.287 349.566C331.694 350.258 332.517 350.345 334.616 349.999C335.525 349.847 336.24 349.847 336.997 350.02C338.274 350.302 340.872 351.644 342.408 352.791C344.097 354.068 347.906 357.596 349.27 359.155L350.504 360.561L349.248 361.795C347.04 363.96 345.482 364.696 341.932 365.28C339.66 365.648 336.261 365.67 334.681 365.345C334.053 365.215 332.668 364.869 331.608 364.566C330.525 364.284 328.447 363.916 326.954 363.743C323.859 363.419 322.841 363.051 320.028 361.254C317.971 359.934 316.305 358.159 315.244 356.168L314.486 354.739L315.028 354.328C316.088 353.505 322.755 350.28 324.811 349.609C327.473 348.722 328.577 348.722 330.287 349.566ZM323.577 350.756C320.98 351.774 316.694 353.895 316.867 354.068C316.911 354.133 318.079 354.046 319.421 353.895C322.668 353.527 324.984 353.7 327.798 354.544C329.898 355.172 331.499 355.432 336.911 356.038C339.378 356.319 340.287 356.6 345.309 358.635C347.365 359.479 349.097 360.172 349.162 360.172C349.465 360.172 347.711 358.31 345.46 356.254C342.3 353.354 339.486 351.449 337.495 350.843C336.218 350.453 335.85 350.432 334.53 350.626C332.279 350.973 331.716 350.929 330.287 350.215C328.404 349.284 326.976 349.393 323.577 350.756ZM318.188 354.652C316.759 354.826 315.569 355.02 315.504 355.064C315.46 355.129 315.699 355.67 316.045 356.297C318.101 360.107 323.296 363.202 327.647 363.202C328.231 363.202 330.266 363.613 332.192 364.09L335.677 364.999L338.815 364.869C342.084 364.761 344.508 364.284 346.066 363.483C346.867 363.072 349.205 361.232 349.227 361.016C349.227 360.929 348.274 360.496 347.105 360.064C345.958 359.609 343.989 358.808 342.733 358.289C339.898 357.098 338.707 356.817 334.508 356.384C331.261 356.059 329.248 355.648 326.283 354.782C324.53 354.263 321.716 354.219 318.188 354.652Z" fill="black"/>
<path d="M362.495 407.726C354.919 417.011 349.421 425.28 341.11 439.825C338.75 443.981 338.426 444.371 340.027 441.124C343.621 433.938 349.941 423.44 354.335 417.379C356.824 413.959 365.006 404.111 365.374 404.111C365.417 404.111 364.118 405.734 362.495 407.726Z" fill="black"/>
<path d="M358.534 431.037C358.534 431.081 358.058 432.422 357.473 434.024C355.742 438.764 354.118 443.916 351.954 451.427C348.859 462.141 348.534 462.855 350.547 454.587C352.452 446.73 354.53 440.28 357.235 433.7C358.209 431.319 358.534 430.669 358.534 431.037Z" fill="black"/>
<path d="M349.205 460.951C349.205 461.189 349.14 461.254 349.075 461.081C349.01 460.929 349.032 460.734 349.097 460.67C349.162 460.583 349.227 460.713 349.205 460.951Z" fill="black"/>
<path d="M418.339 361.124C420.135 361.774 421.715 363.246 422.646 365.15C423.144 366.124 423.144 366.168 423.144 376.514C423.144 386.73 423.144 386.925 422.668 387.921C422.04 389.284 420.373 391.038 419.031 391.73L417.949 392.315H408.534C399.313 392.315 399.096 392.315 398.101 391.839C396.499 391.103 395.071 389.609 394.226 387.834L393.49 386.254V376.189V366.124L393.988 365.172C394.767 363.743 396.326 362.207 397.69 361.536L398.902 360.93L408.209 360.886C415.677 360.843 417.668 360.886 418.339 361.124ZM398.707 361.622C397.581 361.925 397.17 362.207 395.936 363.419C393.729 365.605 393.772 365.345 393.858 376.774L393.923 386.254L394.616 387.704C395.482 389.544 396.91 390.951 398.425 391.492C399.443 391.839 400.395 391.882 408.75 391.882H417.949L418.88 391.384C420.179 390.691 421.542 389.284 422.192 387.986L422.711 386.903V376.622C422.711 366.536 422.711 366.319 422.235 365.323C421.607 363.938 420.179 362.466 418.858 361.795L417.754 361.254H408.88C401.239 361.254 399.832 361.297 398.707 361.622Z" fill="black"/>
<path d="M403.296 363.115C407.365 365.15 407.365 370.994 403.296 373.029C401.196 374.068 398.664 373.678 397.127 372.055C395.633 370.453 395.071 367.769 395.871 365.864C396.326 364.782 397.603 363.462 398.685 362.964C399.984 362.358 401.91 362.423 403.296 363.115ZM398.101 363.808C395.179 365.821 395.244 370.54 398.209 372.379C399.421 373.137 401.283 373.375 402.581 372.942C405.287 372.055 406.694 368.592 405.417 365.908C404.421 363.808 402.993 362.942 400.633 363.05C399.335 363.094 398.967 363.202 398.101 363.808Z" fill="black"/>
<path d="M416.694 363.419C418.62 364.587 418.707 367.055 416.867 368.18C414.919 369.393 412.43 367.986 412.43 365.67C412.43 363.592 414.876 362.293 416.694 363.419ZM413.447 364.284C412.56 365.28 412.625 366.471 413.62 367.466C414.335 368.18 414.465 368.224 415.46 368.137C416.737 368.007 417.322 367.553 417.646 366.449C418.361 364.068 415.136 362.401 413.447 364.284Z" fill="black"/>
<path d="M417.755 371.406C422.257 373.44 422.517 379.328 418.188 381.449C415.157 382.942 411.369 381.644 410.027 378.7C409.465 377.466 409.486 375.302 410.071 374.111C411.001 372.163 412.971 370.994 415.352 370.994C416.369 370.994 417.17 371.146 417.755 371.406ZM413.491 371.687C411.802 372.185 410.309 373.938 409.962 375.821C409.746 376.947 410.287 378.678 411.153 379.739C413.75 382.856 419.508 381.882 420.633 378.159C421.889 373.96 417.906 370.345 413.491 371.687Z" fill="black"/>
<path d="M403.253 379.089C404.227 379.522 405.46 380.691 406.002 381.687C406.651 382.942 406.651 385.453 406.002 386.687C404.703 389.133 401.673 390.28 399.335 389.198C398.209 388.678 396.716 387.055 396.434 386.016C396.088 384.739 396.153 382.899 396.608 381.925C397.473 380.02 399.335 378.786 401.391 378.808C402.04 378.808 402.885 378.938 403.253 379.089ZM399.335 379.631C396.824 380.756 395.872 383.916 397.214 386.557C398.015 388.137 399.162 388.938 400.807 389.111C404.963 389.544 407.668 384.782 405.266 381.276C404.746 380.54 403.577 379.631 402.82 379.392C401.911 379.133 400.201 379.241 399.335 379.631Z" fill="black"/>
<path d="M415.504 386.384C416.629 387.033 416.304 388.527 415.027 388.527C413.988 388.527 413.599 387.358 414.378 386.579C414.876 386.081 414.984 386.059 415.504 386.384Z" fill="black"/>
<path d="M297.863 401.665C295.893 403.786 293.924 405.864 293.491 406.276C292.755 406.968 292.776 406.903 293.837 405.41C295.049 403.721 300.742 397.834 301.175 397.834C301.305 397.834 299.811 399.566 297.863 401.665Z" fill="black"/>
<path d="M283.643 403.245C283.643 403.31 283.534 403.7 283.404 404.111C283.253 404.565 283.08 407.336 282.993 410.821C282.82 418.57 282.474 419.479 282.387 412.488C282.344 407.834 282.387 407.055 282.755 405.561C283.123 404.154 283.621 402.856 283.643 403.245Z" fill="black"/>
<path d="M274.724 410.994C275.46 413.938 276.066 416.427 276.066 416.557C276.045 417.185 274.876 414.068 274.335 411.99C273.75 409.739 273.101 405.908 273.296 405.734C273.339 405.691 273.967 408.05 274.724 410.994Z" fill="black"/>
<path d="M294.227 432.617C290.699 438.916 288.318 442.682 285.655 446.146C284.768 447.314 283.989 448.267 283.946 448.267C283.902 448.267 284.313 447.552 284.876 446.687C285.417 445.842 286.997 443.375 288.361 441.232C291.781 435.843 294.725 431.384 294.833 431.384C294.898 431.384 294.616 431.946 294.227 432.617Z" fill="black"/>
<path d="M304.183 465.843C300.049 470.561 294.053 476.059 290.027 478.895L289.162 479.501L289.919 478.786C290.331 478.397 291.932 476.947 293.491 475.561C295.027 474.198 298.361 471.037 300.872 468.57C303.382 466.102 305.525 464.068 305.612 464.068C305.698 464.068 305.049 464.869 304.183 465.843Z" fill="black"/>
<path d="M336.673 602.941C336.132 603.569 334.508 605.366 333.058 606.946C328.881 611.513 325.439 616.102 322.452 621.102C320.72 624.002 315.504 633.677 313.318 638.028C312.344 639.976 311.521 641.556 311.456 641.556C311.391 641.556 311.478 641.231 311.651 640.842C315.872 630.972 321.175 620.95 325.049 615.496C327.733 611.708 333.166 605.669 336.348 602.941L337.647 601.838L336.673 602.941Z" fill="black"/>
<path d="M330.049 640.582C329.833 642.898 328.448 650.236 327.582 653.872C326.002 660.301 323.361 667.443 319.573 675.495C318.816 677.075 318.166 678.331 318.123 678.288C318.08 678.244 318.794 676.383 319.703 674.132C321.565 669.521 324.703 661.037 325.374 658.764C326.348 655.495 327.474 651.145 328.794 645.344C329.552 642.011 330.114 639.868 330.049 640.582Z" fill="black"/>
<path d="M441.542 554.132C443.794 554.327 449.703 555.149 449.854 555.323C450.006 555.474 449.27 555.409 446.391 555.084C442.019 554.608 437.105 554.457 433.858 554.738C430.59 555.019 423.534 556.037 419.248 556.838C414.14 557.79 415.785 557.206 421.846 555.95C426.434 554.976 430.309 554.392 434.075 554.11C437.322 553.872 438.382 553.872 441.542 554.132Z" fill="black"/>
<path d="M450.893 555.561C450.698 555.604 450.395 555.604 450.244 555.561C450.114 555.496 450.265 555.453 450.633 555.453C450.98 555.453 451.109 555.496 450.893 555.561Z" fill="black"/>
<path d="M446.304 577.639C446.174 577.768 443.122 579.63 439.486 581.816C435.85 584.002 431.11 586.968 428.923 588.439C424.508 591.383 424.205 591.426 427.993 588.569C431.131 586.167 432.949 584.955 436.759 582.704C439.768 580.907 446.716 577.227 446.304 577.639Z" fill="black"/>
<path d="M450.092 606.167C450.092 606.275 449.984 606.535 449.876 606.708C449.767 606.881 449.659 606.924 449.659 606.816C449.659 606.686 449.767 606.448 449.876 606.275C449.984 606.102 450.092 606.037 450.092 606.167Z" fill="black"/>
<path d="M449.659 607.205C449.659 607.249 449.226 608.569 448.685 610.171C447.322 614.218 446.564 617.119 445.568 622.292C444.464 627.963 444.529 627.725 444.486 627.054C444.399 624.889 445.915 616.664 446.997 613.439C447.863 610.863 449.659 606.643 449.659 607.205Z" fill="black"/>
<path d="M487.646 610.279C491.694 611.794 495.027 612.833 499.335 613.959C504.205 615.236 505.828 615.452 510.482 615.452C514.984 615.452 517.863 615.149 522.581 614.175C524.053 613.872 525.309 613.677 525.352 613.721C525.482 613.85 521.239 614.824 518.339 615.344C509.962 616.859 504.118 616.318 494.529 613.179C490.222 611.773 482.755 608.807 483.75 608.915C483.858 608.915 485.612 609.543 487.646 610.279Z" fill="black"/>
<path d="M397.235 690.192C397.863 690.798 398.361 692.357 398.361 693.612C398.361 694.435 397.711 695.863 397.235 696.123C396.218 696.664 393.036 697.638 391.889 697.746C391.131 697.833 390.33 697.79 389.832 697.616C387.581 696.88 387.019 692.616 388.967 690.906C389.962 690.041 390.893 689.803 393.967 689.673L396.607 689.543L397.235 690.192ZM391.672 690.279C389.789 690.582 389.097 690.971 388.599 692.054C388.058 693.287 388.079 694.694 388.664 695.885C389.443 697.422 390.612 697.725 393.274 697.075C397.127 696.145 398.058 695.344 397.841 693.028C397.668 691.166 397.235 690.322 396.369 690.084C395.59 689.868 393.815 689.954 391.672 690.279Z" fill="black"/>
<path d="M161.76 400.475C163.361 402.683 165.158 405.799 166.175 408.159C166.587 409.154 166.911 409.955 166.89 409.955C166.803 409.955 164.833 406.665 162.647 402.812C161.652 401.081 160.699 399.458 160.526 399.176C160.353 398.916 160.266 398.7 160.331 398.7C160.396 398.7 161.045 399.501 161.76 400.475Z" fill="black"/>
<path d="M160.482 413.981C163.772 417.293 168.015 420.431 175.677 425.193C176.608 425.756 177.365 426.275 177.365 426.34C177.365 426.449 174.551 424.955 172.062 423.527C169.941 422.314 166.261 419.847 164.66 418.57C162.863 417.141 158.123 412.12 158.577 412.12C158.621 412.12 159.486 412.964 160.482 413.981Z" fill="black"/>
<path d="M261.759 415.691C261.781 416.102 261.348 418.721 261.002 420.236C260.612 421.925 259.616 424.219 258.404 426.254C257.582 427.639 254.746 431.513 254.4 431.708C254.292 431.773 255.028 430.539 256.023 428.938C259.422 423.505 260.049 422.098 261.132 417.855C261.478 416.535 261.759 415.561 261.759 415.691Z" fill="black"/>
<path d="M100.353 478.57C100.526 484.717 100.959 487.661 103.686 502.163C104.465 506.275 105.201 510.15 105.309 510.778C105.439 511.427 105.504 511.99 105.439 512.033C105.353 512.119 103.383 503.613 102.582 499.565C100.439 488.916 99.5736 480.799 100.05 475.648C100.201 473.851 100.223 474.068 100.353 478.57Z" fill="black"/>
<path d="M27.7335 483.223C27.6686 483.461 27.3655 484.522 27.0625 485.604C25.0495 492.401 24.292 498.115 23.5777 511.795C23.0798 521.318 23.0798 521.34 23.1448 513.202C23.2746 500.907 24.0755 494.154 26.2617 487.076C26.911 484.998 27.9067 482.358 27.7335 483.223Z" fill="black"/>
<path d="M39.4001 506.816C39.3568 507.054 39.0105 508.375 38.6425 509.738C37.2573 514.847 36.4564 520.063 36.0019 526.73C35.7421 530.604 35.6555 547.162 35.872 558.656C36.0019 566.297 35.7854 564.435 35.3742 554.219C35.0062 545.517 35.1794 527.466 35.6772 523.375C36.175 519.176 37.0408 514.63 37.9932 511.145C38.7075 508.505 39.6599 505.604 39.4001 506.816Z" fill="black"/>
<path d="M124.075 513.894C127.582 521.925 129.314 527.79 131.478 538.743C132.495 543.938 134.422 556.015 134.249 556.189C134.205 556.232 133.837 554.479 133.448 552.314C132.236 545.647 130.049 534.695 129.227 531.275C127.733 524.89 125.374 517.531 123.145 512.314C122.712 511.34 122.409 510.496 122.452 510.453C122.517 510.409 123.231 511.968 124.075 513.894Z" fill="black"/>
<path d="M105.699 512.682C105.699 512.92 105.634 512.985 105.569 512.812C105.504 512.661 105.526 512.466 105.591 512.401C105.656 512.314 105.721 512.444 105.699 512.682Z" fill="black"/>
<path d="M134.465 557.141C134.465 557.444 134.422 557.552 134.357 557.401C134.314 557.271 134.314 557.011 134.357 556.859C134.422 556.73 134.465 556.838 134.465 557.141Z" fill="black"/>
<path d="M36.1753 567.53C36.1753 568.072 36.132 568.288 36.0887 568.007C36.0454 567.747 36.0454 567.314 36.0887 567.033C36.132 566.773 36.1753 566.989 36.1753 567.53Z" fill="black"/>
<path d="M230.829 675.149C226.067 681.967 217.171 691.967 211.673 696.729C204.162 703.223 194.703 709.781 181.045 718.006C178.253 719.694 175.742 721.21 175.461 721.383C175.201 721.556 174.985 721.642 174.985 721.578C174.985 721.513 176.132 720.755 177.517 719.889C188.231 713.266 201.088 704.478 207.127 699.695C214.422 693.915 221.954 686.123 229.292 676.837C231.348 674.262 231.868 673.656 230.829 675.149Z" fill="black"/>
<path d="M209.595 730.409C209.595 730.517 209.465 730.863 209.292 731.166C209.119 731.469 208.989 731.599 208.989 731.491C208.989 731.361 209.119 731.036 209.292 730.733C209.465 730.43 209.595 730.279 209.595 730.409Z" fill="black"/>
<path d="M208.967 731.837C208.989 732.378 204.313 742.032 202.365 745.452C199.833 749.932 194.681 757.032 189.378 763.417C186.002 767.443 180.828 773.374 180.677 773.374C180.612 773.374 181.002 772.854 181.521 772.227C183.274 770.17 188.274 764.002 190.59 761.036C198.534 750.906 201.413 746.469 206.196 737.118C207.712 734.131 208.967 731.772 208.967 731.837Z" fill="black"/>
<path d="M47.8203 768.092C44.7684 770.971 40.2878 774.045 36.9545 775.56C33.4047 777.183 24.4654 780.279 24.184 780.019C24.1407 779.976 25.0065 779.608 26.1104 779.218C29.7684 777.941 36.0238 775.343 38.2316 774.218C40.7207 772.919 44.5952 770.387 47.3874 768.179L49.3354 766.642L47.8203 768.092Z" fill="black"/>
<path d="M1 477V478.5V481.5V635.5V786.5V803.5H386H474H476H476.5C476.333 802.833 475.8 801 475 799" stroke="black" stroke-width="0.3"/>
<path d="M113 844V804H371V844H113Z" stroke="black" stroke-width="0.3"/>
</svg>
