<svg width="119" height="102" viewBox="0 0 119 102" fill="none" xmlns="http://www.w3.org/2000/svg">
<path d="M68.812 100.509C75.6465 100.509 82.0657 99.2154 88.0695 96.6289C94.0733 94.0423 99.3663 90.4476 103.948 85.8447C108.531 81.2417 112.126 75.9403 114.733 69.9403C117.34 63.9402 118.644 57.5399 118.644 50.7394C118.644 43.9388 117.34 37.5384 114.733 31.5384C112.126 25.5384 108.522 20.2369 103.923 15.634C99.3238 11.031 94.0224 7.4363 88.0186 4.84977C82.0148 2.26324 75.5956 0.969971 68.761 0.969971C62.4323 0.969971 56.4388 2.1009 50.7804 4.36277C45.122 6.62464 40.0565 9.78523 35.5839 13.8446C31.1112 17.9038 27.4598 22.6107 24.6298 27.9652C21.7997 33.3197 20.0562 39.0896 19.3993 45.2748C20.5772 45.0482 21.959 44.8953 23.5446 44.8161C25.1301 44.7367 26.559 44.782 27.8313 44.9519C28.5297 39.8955 30.0476 35.1997 32.385 30.8645C34.7224 26.5293 37.731 22.7427 41.4109 19.5045C45.0908 16.2663 49.2541 13.7457 53.9007 11.9425C58.5473 10.1393 63.5008 9.23767 68.761 9.23767C74.5347 9.23767 79.9365 10.3054 84.9663 12.4408C89.9961 14.5762 94.4123 17.5452 98.2149 21.3478C102.017 25.1504 104.988 29.5647 107.127 34.5907C109.266 39.6167 110.336 44.9996 110.336 50.7394C110.336 56.1015 109.39 61.1616 107.498 65.9196C105.607 70.6775 102.991 74.8804 99.6534 78.5282C98.0487 76.6325 95.7661 74.8331 92.8057 73.1299C89.8453 71.4267 86.3382 70.036 82.2845 68.9578C78.2307 67.8796 73.7229 67.3405 68.761 67.3405C66.465 67.3405 64.2426 67.4755 62.0938 67.7456C59.9451 68.0156 57.8984 68.3753 55.9536 68.8248C56.5615 71.1658 56.8655 73.6353 56.8655 76.2331C56.8655 80.058 56.2009 83.6933 54.8717 87.1387C53.5427 90.5842 51.7114 93.6776 49.378 96.4189C52.38 97.7331 55.516 98.7432 58.7862 99.4494C62.0564 100.156 65.3983 100.509 68.812 100.509ZM68.761 59.0709C71.9102 59.1048 74.7498 58.3118 77.2798 56.692C79.8097 55.072 81.8166 52.864 83.3006 50.0679C84.7846 47.2717 85.5266 44.1328 85.5266 40.6514C85.5266 37.3776 84.7808 34.3718 83.2893 31.6342C81.7977 28.8966 79.7889 26.7074 77.2627 25.0668C74.7365 23.426 71.9026 22.6057 68.761 22.6057C65.6609 22.6057 62.8393 23.426 60.2962 25.0668C57.753 26.7074 55.7356 28.8966 54.244 31.6342C52.7525 34.3718 52.0238 37.3776 52.0578 40.6514C52.0654 44.1328 52.8111 47.2547 54.2951 50.0169C55.7791 52.7791 57.7822 54.9701 60.3046 56.59C62.827 58.2099 65.6458 59.0369 68.761 59.0709ZM25.2841 101.036C29.7661 101.036 33.8914 99.9103 37.6598 97.6599C41.4282 95.4094 44.4481 92.4084 46.7193 88.657C48.9905 84.9056 50.1262 80.7719 50.1262 76.2558C50.1262 71.7058 49.0009 67.555 46.7505 63.8036C44.5 60.0522 41.499 57.0597 37.7476 54.8263C33.9962 52.5927 29.8417 51.476 25.2841 51.476C20.7831 51.476 16.655 52.5927 12.8998 54.8263C9.14463 57.0597 6.1399 60.0522 3.88564 63.8036C1.6314 67.555 0.504272 71.7058 0.504272 76.2558C0.504272 80.8058 1.6314 84.9566 3.88564 88.708C6.1399 92.4594 9.14463 95.4519 12.8998 97.6854C16.655 99.9188 20.7831 101.036 25.2841 101.036ZM24.9216 92.1091C23.921 92.1091 23.0601 91.74 22.3389 91.0018C21.6177 90.2636 21.2572 89.3943 21.2572 88.3937C21.2572 87.3931 21.6177 86.5322 22.3389 85.811C23.0601 85.0898 23.921 84.7292 24.9216 84.7292C25.9562 84.7292 26.8359 85.0898 27.5609 85.811C28.2859 86.5322 28.6446 87.3931 28.637 88.3937C28.603 89.3943 28.2321 90.2636 27.5241 91.0018C26.8161 91.74 25.9486 92.1091 24.9216 92.1091ZM24.9216 82.4124C24.0947 82.4124 23.4472 82.1764 22.979 81.7045C22.5108 81.2325 22.2767 80.5906 22.2767 79.7789C22.2767 79.7374 22.2767 79.7043 22.2767 79.6798C22.2767 79.6552 22.2767 79.6354 22.2767 79.6202C22.2767 78.1175 22.6486 76.9121 23.3925 76.004C24.1363 75.0959 25.0463 74.2699 26.1225 73.5259C27.4101 72.6197 28.4174 71.8314 29.1444 71.1612C29.8713 70.4908 30.2348 69.6024 30.2348 68.496C30.2348 67.4688 29.8486 66.6428 29.0764 66.0179C28.3041 65.3929 27.2854 65.0804 26.0204 65.0804C24.9026 65.0804 23.9746 65.2909 23.2363 65.712C22.498 66.133 21.8627 66.6343 21.3303 67.2159C20.8696 67.7067 20.4344 68.1353 20.0248 68.5016C19.6151 68.8678 19.0686 69.051 18.3852 69.051C17.6225 69.051 17.009 68.8188 16.5446 68.3544C16.0802 67.89 15.848 67.2859 15.848 66.5421C15.848 64.6542 16.8958 63.107 18.9914 61.9005C21.087 60.694 23.4262 60.0908 26.0091 60.0908C29.0373 60.0908 31.4615 60.8573 33.2815 62.3904C35.1015 63.9234 36.0115 65.8661 36.0115 68.2185C36.0115 70.1177 35.5046 71.5856 34.4908 72.6222C33.477 73.6586 32.2809 74.6791 30.9027 75.6835C29.8868 76.435 29.123 77.1091 28.6114 77.7057C28.0998 78.3024 27.7817 79.0859 27.6571 80.0564C27.5891 80.7926 27.338 81.3694 26.9038 81.7866C26.4696 82.2038 25.8088 82.4124 24.9216 82.4124Z" fill="black"/>
</svg>
