<svg width="80" height="80" viewBox="0 0 80 80" fill="none" xmlns="http://www.w3.org/2000/svg">
<g clip-path="url(#clip0_1_3)">
<path d="M69.209 70.045C75.518 70.045 78.969 66.52 78.969 60.062V18.982C78.969 12.488 75.518 9 68.949 9H9.797C3.45 9 0 12.414 0 18.982V60.062C0 66.594 3.451 70.045 10.02 70.045H69.209ZM39.707 45.145C38.371 45.145 36.627 44.514 35.105 42.955L4.825 13.305C6.049 12.229 7.793 11.672 10.057 11.672H68.912C71.25 11.672 73.105 12.34 74.367 13.564L44.346 42.955C42.75 44.551 41.08 45.145 39.707 45.145V45.145ZM3.414 63.81C2.932 62.733 2.709 61.472 2.709 59.987V19.057C2.709 17.721 2.895 16.57 3.266 15.605L28.24 39.986L3.414 63.811V63.81ZM75.666 63.438L51.211 39.986L75.814 15.976C76.111 16.867 76.26 17.906 76.26 19.056V59.988C76.26 61.324 76.074 62.475 75.666 63.439V63.438ZM68.912 67.335H10.057C7.979 67.335 6.346 66.853 5.121 65.962L30.17 41.842L33.361 44.959C35.551 47.074 37.741 47.854 39.707 47.854C41.711 47.854 43.9 47.074 46.09 44.959L49.281 41.842L74.071 65.703C72.846 66.779 71.101 67.336 68.912 67.336V67.335Z" fill="#D5D5D5"/>
</g>
<defs>
<clipPath id="clip0_1_3">
<rect width="80" height="80" fill="white"/>
</clipPath>
</defs>
</svg>
