<svg width="19" height="19" viewBox="0 0 19 19" fill="none" xmlns="http://www.w3.org/2000/svg">
<path d="M9.49121 18.751C14.4746 18.751 18.5879 14.6377 18.5879 9.66309C18.5879 4.67969 14.4658 0.566406 9.48242 0.566406C4.50781 0.566406 0.40332 4.67969 0.40332 9.66309C0.40332 14.6377 4.5166 18.751 9.49121 18.751ZM9.49121 4.44238C11.2051 4.44238 12.5586 5.93652 12.5586 7.72949C12.5586 9.63672 11.2139 11.1045 9.49121 11.0869C7.76855 11.0781 6.43262 9.63672 6.43262 7.72949C6.42383 5.93652 7.78613 4.44238 9.49121 4.44238ZM14.835 14.8398L14.8525 14.9541C13.5254 16.3867 11.46 17.2041 9.49121 17.2041C7.53125 17.2041 5.45703 16.3867 4.12988 14.9541L4.15625 14.8398C4.98242 13.7324 6.8457 12.6074 9.49121 12.6074C12.1367 12.6074 14 13.7324 14.835 14.8398Z" fill="#1C1C1E"/>
</svg>
