<svg width="85" height="84" viewBox="0 0 85 84" fill="none" xmlns="http://www.w3.org/2000/svg">
<path d="M32.6307 83.8317C34.6882 83.8317 36.328 82.9237 37.5503 81.1078L83.6563 8.52145C84.1258 7.79619 84.4504 7.14699 84.63 6.57385C84.8095 6.00072 84.8993 5.43109 84.8993 4.86495C84.8993 3.53209 84.4918 2.45639 83.6768 1.63786C82.8619 0.819389 81.7844 0.410156 80.4444 0.410156C79.4777 0.410156 78.6871 0.598322 78.0724 0.974655C77.4577 1.35099 76.85 2.00532 76.2494 2.93765L32.4131 72.7665L9.66889 42.9738C8.50849 41.3923 7.10313 40.6016 5.45279 40.6016C4.07839 40.6016 2.95783 41.0263 2.09109 41.8759C1.22429 42.7254 0.790894 43.8338 0.790894 45.2012C0.790894 45.7814 0.908327 46.3684 1.14319 46.9623C1.37799 47.5562 1.73373 48.1605 2.21039 48.7753L27.5242 81.0043C28.988 82.8892 30.6902 83.8317 32.6307 83.8317Z" fill="black"/>
</svg>
